<mxfile host="app.diagrams.net" agent="Mozilla/5.0 (Windows NT 10.0; Win64; x64) AppleWebKit/537.36 (KHTML, like Gecko) Chrome/131.0.0.0 Safari/537.36" version="26.0.4">
  <diagram name="第 1 页" id="0yNqV_RMz5kUiO1jxO6q">
    <mxGraphModel dx="1050" dy="522" grid="1" gridSize="10" guides="1" tooltips="1" connect="1" arrows="1" fold="1" page="1" pageScale="1" pageWidth="827" pageHeight="1169" math="0" shadow="0">
      <root>
        <mxCell id="0" />
        <mxCell id="1" parent="0" />
        <mxCell id="Spop3Ddc6IrFPZ1S9ocK-1" value="" style="shape=image;verticalLabelPosition=bottom;labelBackgroundColor=default;verticalAlign=top;aspect=fixed;imageAspect=0;image=data:image/png,iVBORw0KGgoAAAANSUhEUgAAAH0AAAB9CAIAAAAA4vtyAAAgAElEQVR4ARzBB1gTB8MA4NxK7i6XPUlYYSgOHBUH4qpF3Asn1lU37tZqtfazrVY7tFXr1roH4Kq4WzfOuhVQNggEsuflkhu5+//H9wWWLFmCIEggECgpKXn9+rVCoSguLrbb7ZMmTXr9+vXLly8NBgNN05MnTz5//jyKojiOO53OoUOHXrp0qba2tkOHDizLwjAsl8vHjBkjFouXLVtWXl7ev39/tVq9ZMkSBEF2795N03RNTY1KpcrJySFJ0mKxHD16VCwWSyQSo9HIcVxMTMzSpUshCOrQoUNycrJerzeZTF6vNxgMdujQ4f79+yAIJiUl+f1+o9E4fPjwEydO8DyfkpJSW1ubnJzscDhUKtXatWtLSko+/fTTW7dupaSkGAwGlmVJknz79u2tW7fC4bBUKsUwLCsr68cffzSbzSzLLl++/Pbt22fOnLl+/XpraytBEEajkWGYpKSk5OTk+vr60tLSmJiYFStWIAiC43gwGBSLxSdPnmxsbOzcuXOHDh2MRmNMTMyLFy+2bNny6aef7t27Nycnp7W1VaPR0DQtEolYlu3Tp8/OnTtv376NYdiTJ0/Wrl0LDBkyJBAIWCyWa9euPX36tLa2dtSoUX/88YdOp6NpmmVZCILsdrvRaJRIJOFw2GQyiUQiBEHmzZs3d+5cv99vMpmSk5PLy8t5ng+Hw/X19aaPkpKSqqurVSoViqIpKSkNDQ3Pnz+XSqXp6eksy0ajUaVSCUFQbGxsQkKCXC7v2LGjXC7X6XQ9evRQKpWCIOA4LpPJmpqa9Hq98yOdThcXF2cwGJxO54ABA+7cuRMKhTiOi0QiTqfzyJEjcrlcLBY3NzfHxMQEAgGapjmOS01N/eabb4YNGzZ06FCj0ZiZmblz506WZevq6oYPH56RkXHx4kWn01lfX5+amkoQBP0R/BGCIHK5fOLEiSqVCsMwEAR9Pt+9e/e2bNly8eLFVatWHTt2LBAIFBYW/vXXXw8ePBg6dGinTp2sVqtWqwVBUBAEs9k8Z84ctVrNsuyrV682bNjw1VdfAQzDTJ069e+//87Pz8/MzJwzZ862bds8Hk96enokEsEwjOO4gQMHXr58edKkSZcvXx4+fPi2bdvGjx+v1+uvXLlSWVnpcDi8Xi8IgkajEUEQqVSqVqvbtWtXV1eHIIher6+srJw6dWpBQcGzZ8/0en3//v1fvnyJYRjLshaLBUEQt9stkUgoiuJ53mAwRCIRr9cbFxcnk8msVqvX61UqlTRNEwQxZcqUs2fPchzn8/kSEhIcDgfP8ziOEwRRUlLy3XffWSwWvV6PYRjP8wAAtLS0aLVaFEXlcnlDQ4NYLGYYBgRBlmXv3bs3fPhwu90OQZBUKo2JiREEweVygSD4/v37Tz75hKIojuMAAFCr1fn5+fHx8Q0NDXq9vk+fPv/999+LFy82bdo0cuTIIUOGyOXyhoaGLl26WK3WrVu3ulwutVrNsmwoFIIgKCkp6dq1a7t37y4vL7937x6KoitWrADGjRvXv3//ioqKDh06yOVykiRnzpy5d+/e5OTkIUOG3L9/n6KoHj16KJVKnU63efNmjUbj8XjC4bBKpSJJkiAIAACam5s1Gs0333yzefNmrVZrs9liYmJommYYxuPxrF+/fvXq1QiCgCAYHx8fExPj9XqfPn165cqVCRMmsCwrCIJGo1Gr1YIgIAjSu3fvsrIyj8djs9mmTp168OBBs9lMkqTFYsnJyXn69KnT6XS5XARBrFq16ocfftDpdFOmTFm7dq1Op/vvo+bmZolEQhAEDMMIggSDQQiCCIJgWZb5iKZprVZL0zTzEcdxWq02Go3yPF9fX9++ffuGhgaNRvPhw4du3bodP368srLS5XKpVCqPx5Odnf348eNAIHD48OGSkpKNGzd27tyZoigAAG7dulVRUeF0OktLS9u1aycIgkgkgmEYx3Gfz0cQRDgc1ul0mzZtAmbNmgVBUEVFRU5OTkpKCgiClZWViYmJIAgmJCRUVlZqtVqZTKZQKGw2G8MwOI6LRCIURRsaGliW/fLLL/fu3RuJRFAUpSgKw7DExMT//vtPrVavW7duy5YtIpEIgiCCIDIzMw8fPtypU6c3b96Yzebbt29fu3YtNTV14sSJiYmJDocDx3GapmEYxjCsqqqqS5cu9fX14XBYIpEsX778zJkzfr9/2LBhr1+/piiKZdnMzMyEhITS0tL79++r1WqGYWJjYymKevPmzYsXLyiKqqqq0mg0Ho8nGo1iGPb48WOlUpmamgrDMMdxUqm0srJSJpNpNBqO4wAAIElSoVA8ffo0IyMDhuFIJBKNRiUSidPpBADg+++/1+v1DocjPj7e4/EMHDhw1KhRPXv2nD17ts1mA0Fw0KBBS5cuvXnzJsMwSqWSYZj6+nqSJNu0aQPDsEQigSAoGAymp6cXFxcDU6ZM6dWr108//fTLL79AENShQ4eysrJgMJifn79v376Ej9LT00+ePMkwjF6vz83N3bdv35QpU/79999QKERRFIZhn3/+uSAIR48eZVnW5/O1a9eOIIh58+ZdvHjx7t27MpmM53kEQYYNG/bkyRO/3y+RSGbNmuXxeMaOHXv+/PnffvutZ8+eFEXl5OREo9Fjx461tLQkJSVJpdKxY8eePXsWRVGWZUEQJAjC7XbrdLq6urqlS5e63W6JRHLr1q3q6mqFQgHDMMuyJEmq1eqKioq7d+82NDS8f/8+MzPT7Xar1WoEQSKRCI7jDodDJBJBEIRh2IsXL9LT0zmOEwQBhmEMw2iaJggiGAzq9fp//vmnf//+ycnJ48aNS/no6NGjZrM5FApptVoURR89etS1a1eRSNTa2urz+RYvXtyrVy+fz6fVakEQbG5uRhBErVbfuHEjIyMjFAqZTKZOnToB33//vUKhqK2tVSqVCQkJa9asKSoqcjgcCQkJ3bp1u3v3bmNjY4cOHex2eyQSCYfDOI6DIMiyrFKptNlsgwcPvnDhgl6vZ1n2q6+++vHHHzEMAwAgLS2trq7OarWCILh+/fpffvklLS1t5MiRW7duff369c6dO5csWYLj+PXr17///nu/3//ZZ5+VlJQsXLiwuLiY47hQKERR1GeffXb9+nUEQRQKRTgcnjx58uHDh2EYFolEAACEw2Ecx0eOHHn9+nWSJI1Go9frBUFQq9UyDMOy7KBBg7766qu3b98iCGIymRwOh9vtFolEUqnU6XTKZLJgMAjDMM/zqo/8fr/X6xWJRDAMy2Qyt9ut1WqlUmk0Gk1PTx8zZkxdXR1BEBRFicXitm3b0jR948aNWbNmnTp1KiUlJRqNtrS0LFiwYNSoUbW1tQAAaDSaCxcuDB48WBAEjuMAAEAQxOfzYRgGgCA4derUtLS0/Pz8a9euTZgwYc+ePSiKGgyGWbNm7d27F8dxGIZBEHQ6nXFxcS9fvkxOTq6vr4+JiRF91NTUZLFYGIbp3r37kydPpFJpMBicN29eeXn5w4cPo9EoBEEKhYIkSZFIxLLshg0bgsFgUlJSbm4uQRDhcDg+Pp4kyXbt2lmtVoqi4uLiotEoSZKRSKSxsTE1NTUajWIY5nA4cBynKIqm6XA4bDKZcBwfPny4w+G4fPkygiBisVgul4fDYUEQQBD0+/05OTmnTp1avXr169evS0pKfv31V61WC8Pw8+fPk5KSrl69Om3atEAggGGY3+9XqVShUAgAgMrKyrZt2yIIAoKgx+Pp0aOH2WweMmQIgiAfPnzYuXNnZmZmr169YBi+deuWRqOJi4tbsGBBQUEBSZI2m+3kyZMIgvA8L5PJvF6vIAjt2rUbOHDgDz/80KVLFxAEX758CYwZM8ZisSiVyj59+qAoCoJgx44dLRZLcXFxQ0PD2LFjz5w5I5FI4uLiPnz44Ha7VSrVuHHjDhw4oFarw+GwUqkcMmSIwWA4cOAAgiDhcJim6SVLluzcuROGYaPRGAgEUlNTq6qqtFqtw+GAYdjlckml0sLCwpEjRy5fvvzkyZMcx7Esq1arWZbNyclJTk5et26dIAgqlcrtdhsMBpqmBUEgCKK5uVmn05EkqVQqEQQRiURWqxWCIIlEEolEOnbs2LlzZ7VaffHiRaVSabFYHjx4kJOTU1lZGQqF9u/f/+TJE41Gc+/evd69e0ejUZFIdOnSJYvF0qVLF/ojg8Hw+PHj9PT0ysrKzMzMYDBIURQEQTU1NYMHD1ar1W63e+TIkTqdzu/30zT97t27x48fjx07tl27dsFgUKPRNDY2HjhwAARBn89nMpmCwaDf71er1UeOHKmqqjKbzcnJyVevXgVmzJiRkZGRlpYGAMDTp087duw4evTof/75JxgMKpVKQRAYhlGpVE6nE4bhTz/99MqVKz6fj2VZhUKhVqsFQQiFQgsXLtyyZQvHcTAMIwgSiUTkcvmrV69UKlXnzp0nT55cWFhYWVlJkqRUKg0GgwRBzJ8/v6KigmVZmqbHjBnzyy+/GAwGv9/PMIxUKo1GoyAIDhw48NGjRz6fz2w2OxyOzz///MaNGxUVFStXrjx06JDNZjMYDAAAaDQaCIJaW1tdLpdUKtXpdLm5uWfOnJHL5e/fv7dYLF6v12g0/vbbby0tLTdu3MjKynr27NnIkSMBAGAY5smTJwaDISYm5t69e59++qlCoWAYJhKJgCAIQRCCIO/evevZs2dMTMz79+8ZhklPT7969arL5bp8+fKiRYv69u07ffp0jUbz5s2b5OTk27dvnz17Fv1IEAS/369SqTwez+jRozt16qRUKhsbGydOnAisXbu2a9euHMdlZGQ8efJEIpGQJImiKEVRCQkJHTt2PHjw4Lt375qbm7OyshITE6VSqUwmczgcGIYZjUaGYbKysi5evKjVaj0eD4IggiA8f/789evX/fr1S0lJMRgMXq+3Q4cOGRkZXq83KSlJo9GsX78eBEGPxzN79uxLly7BMDx06NB///3XarVyHKfVagEAIElSKpVSFGW326dOnXr58uWFCxdu27aNoqh169YdOnSI47hQKCSRSGiaTk5OfvHiRX5+/qlTp3AcZxhGLBYDACCRSFAUZRjm7du3ly5d8vv9NE2bTCaHwyESieRy+f379zMyMgRBEIvFkUgkHA6r1WoURUUiUSgUevToUf/+/VEUzczMDAQCp0+fnjBhQklJybhx43JyciorK5VK5b179xwOx/Tp0x0OR2JiYnp6epcuXZRKpcPhQFFUrVaLP9Jqtbm5uVqt1uFwqNVqYPPmzW3btnW73Xq9PhgM+ny+xMREh8ORlZX18uVLlUrV1NSUm5t78eLFUCikUChYltXpdBzHZWdnnz9/PhwOQxBkNBoZhvH7/Xl5eePGjcvKyuJ5fv369bW1tXfv3pVKpSqV6t69e+vXr1++fHkgEBgzZoxOpwsEAuFwOCUlpaqqSqFQBD/64osvjhw5IpVKaZqORCJKpTIYDIbD4WnTpp0+fTovL6+goACCILvd/vXXXxcUFIAgyHEcCIIsy86cOfP06dMoikajUbvdjiBIfn6+3+8vKSmpqamhaRpBkOvXr1ut1rdv3xqNRrFYjGEYBEGRSAQAAIZhAACQy+WRSATH8Ugk8vLly8zMTIvFsmzZsnbt2lVWVuI4bjKZ/vrrr6ysLL/fj2HYggULhg4d2q1bt8WLF9fX179582bkyJGJiYk8zysUinA4HB8fv2jRIp7nPR6PRCIZPHhwTk4O4HA4bt++bbFYSktL4+Li6uvrpVJpNBqdPn36iRMnUlJSwuFw7969JRLJ6dOnxWKxVCp1Op2JiYkURbW0tBAEMXXq1N27d+v1+gcPHmRkZFAUtWDBgkAgcPjw4e7du9vt9r59+544ceLVq1ePHj0aMWLEiRMnTp48+e7dO6PRyPM8hmFNTU0wDBMEwXHc9OnTCwoKQqHQ1KlT//rrLwRBOI7DMKxfv35t2rRZv369xWIJBoMymeyrr7766aefpFLpxIkT/X5/WVmZ1+vV6/VVVVVisVgkEsXExPA83759+5cvX4ZCIRzHURRFEOTYsWO3b9+GIAgEQQAAVCrV3bt3u3XrJpVKw+GwIAgsy5IkyfO8Wq0WBIHjuP/973/l5eUKhaK2tnbfvn3dunUbNmxYnz59PB4PDMM2my0tLc3v96MoGh8fn5aWtnLlyn///Tc+Pt7j8VRVVf31118AAKAompmZmZeX19jYCBQVFSmVSoqiOI4TiURVVVVffPHFu3fvfD7fgAEDrl+/zrKsx+OxWq3p6ekEQUyfPv3MmTNDhgy5du0aDMM2m83tdnfp0qVt27bl5eUcx0EQ1NjYqNVqJRJJXl7evn37Hj9+fOrUqYyMjCNHjkQikdLSUo/HAwAACIJ6vd7lcikUCpvNJvlIJBI5nc5vvvlm+/btfr+/bdu2o0ePPnTokFQqJUnSZrO1a9fO7XYLgsDzvFQqXbRoEc/zO3bsAAAgGo3K5fJAICASiaRSaTAYNJlMEAQxDAOCoCAINTU1IAguWrSoa9eu0WhUqVS63W6GYXieVygUgUAAgiCv14thGI7jGo0mFArBMBwbG9urV687d+54vV6FQjFr1qwnT568fPlyzZo1cXFxtbW1BoOhU6dOd+7cmTdv3suXL5VK5YoVK/744w8IghITE5VK5eLFi1NSUjiOu3nz5oEDBzp37gxcunSJYRiapmNjYx8/fsyyLIqiJpPJaDT27dv3+vXrFoultrYWw7AePXpUVVWxLFtbW+vxeLZs2WL96NChQ+vXr3/06NG7d+9YljWZTNXV1WKxmCCItm3bvnr1ymQyJScnv3r1iud5i8Xidrs1Go3NZoMgKBAIYBgmEolAEFSpVAzDuN3uJUuWFBcXV1VVeb3e+Ph4mqYnTpx4/fp1j8cDgmAkEjEYDA6HIzY2tr6+3vRRjx49Dh48qFKpIpEIiqLRaNTv96vVagAAAoEAx3EAAOA4vmbNmt69e798+VIQBLlcjqKo3++HYTgajfI8D8NwRkYGBEEsy5aWlprNZudHq1evlsvlM2fOvHLlSnl5+dq1awsKCr799tuYmJiioqLCwsIxY8YkJSXRNH3nzh2GYdLS0kaMGBEIBNLT0zMzMwVBMJlMZrP5w4cPu3btqqioKCsrA/bu3fv999/X19efOHGC47hRo0ZVV1eDIJiRkfHgwYNgMNjQ0DBjxozKysqWlhatVmu32yORiN1ur6qqMpvNKpXKZDKNGTNm3759Wq0Ww7BoNDp27NiSkpLW1lYMwxwOh0wme/Xq1YABA7Kzs589e+b3+xUKBU3Tn376qdlsPnbsGAzDNpuNIAgcxwcOHLhnzx4AAKRS6dSpUw8dOgQAgNlsBgCgtrYWQRCCIARB4DhuxIgR165doyhq9uzZe/bsQVFUEASO41AUlUgkdrvdYDAEg0GVSiUWi1mWHTBggN1uf/LkydKlS9PS0hiG0ev1gUCAYRiapmNiYgwGw7lz5169ekVR1P379zEMe/Dggd/v//fffymKevTokVKpLCsrk0qlkydPPnnyZGJiYm1t7Zw5cwoLC6PRqEKh6Nix44MHDxiGOX/+vE6ny8/P9/v9YrF4wIABBQUF3bp16927d/v27UeMGAEcPXpUqVQyDDNjxoz9+/djGMayrMfjaWlpOXTo0OzZs0mSHD58OIZhNE1nZ2eDILhjxw5BEFQqVTAYNJvNHMchCGKz2VAUZRgmGo1CEASCIIZhPXv2dDgchYWF1dXV48ePz8vL4zju0KFDPM+npaU9f/7cYrEIgoBhmCAIMAyTJImiqNPpTEpKKi8vb9u2rcvlstlsEolEr9d7vd4VK1Zs3rzZ7/erVCqGYbRarcvlUiqVEARNnjz54MGDHo8Hx/EFCxa4XK4nT5643W4EQb744osLFy4MGTLk0KFDWq1WoVC8e/fu7t27NpvN4/GgKBoKhWQy2fz58y0WiyAIBEGIRKKWlhaSJKVSaSgUEgQhLS2NYRi73T5+/Phr164xDKNWqx0OB47jYrG4vLz83bt3aWlp3bt3FwShX79+f/zxh0KhMBqN0Wi0ubm5ffv2x48ff/bsmVar/fvvvwEURQ8dOsQwDMuyK1eu3LhxY0xMzPjx43/99desrCyXy0XTtF6vZ1mWpmkYhhmG6dev37lz5wwGQyAQEIvFIpEoFAqZTCav1yuXy0UiUTAYdLlc//vf/44fPz5v3rzff/999OjRly9fbtOmjcVief36tdvttlqtEolk7ty5oVCIJMm7d+8CABAMBjEMIwiC4zifz4eiqN/vNxqN4XDY5XKJRKJQKJSbm3v06FEIghiG0Wq1r1+/Tk9PNxgMwWAQhmGRSKTX6202m1wuj0ajIpEIAACHw2EymQRBwDCMIAgAAEiSPH78eEVFhdFobGlpYVl2yJAh3bt31+v19fX1S5cuPX/+vMfjmT179uXLlwmCkMlkCII0NjZGIhGlUmmz2QiCgGEYBMFgMMhxnNfr/eOPP2JjY+fNmyeXy8ePH//dd9/9/fffKIp27949PT09KSmpuLj43LlzGo1m2bJlQFFR0aRJk1JTUzdu3CiXyymKGjhw4MqVK0eNGqVSqVpbW5VKJU3TDMPcv39fp9PZbLba2tpevXr17NmTYRiPx4MgCE3TJpPJ7XaDIJibmxuJRIqKipYvX37y5MlAIACCoEajycvLO3LkCM/zEomEJEmFQjFkyJA9e/YkJiZGIpHRo0cXFhaGw2EURV0uF0mSer2epmmXy8UwjE6ns9lsKpWKoiitVmuz2T755JPc3NzTp0/X1dXV19d37dq1vr5ep9NJpVKNRvPhwwee5xmGMRgMBEHI5XKPx8N+pNfrIQiy2WwOh2P37t2xsbFerzcpKenkyZOvX7+eNm3asWPHEhISCIIoLy+fPn16U1PT6NGjd+7c2a5du2nTpg0dOjQUCmk0mlAoJBaLcRzPzs4uLi4Wi8V37969fv16Xl5eVlZWMBiUSCQPHz58/vx5YWFhSUlJVVXVy5cv6+rq+vfv//z5c6CwsHDixImHDh3S6XRisZiiqFAolJeXd/DgwY4dO9bU1EQiEZPJ9Omnn2q12oKCgubmZgiCXC6XxWKRyWQoira0tMycOfPkyZN6vf7t27csy2IY1rt37zdv3qSlpTU0NCgUihEjRpw8eVKv1wuC4PF4Ro8effPmTZIkIQhaunRpa2vrmTNnBg0adP78eQAASJKkaZogCJ/PR5KkXq93Op1paWlWq9VoNGq12ubm5mg0unbt2nXr1vE8v2LFisuXL9tsNpZlP//8840bN6anp8MwPHbs2D179iQkJNA0TVGUVqvt27fv8+fPy8vLv/3224KCgpMnTwYCgZs3b+7atQuCoAEDBtTU1Ph8vrq6utLSUrvdfv/+/aysLJ7nOY6jPhKLxV26dGnTpk1MTEzHjh0bGxv1er3dbmdZtk2bNrW1tevWrdu/f79cLne73fv375dIJAMHDoyJiQEAIBQKHTlyZOLEiW/evAH27t2bmJhI03RTU1NKSgrDMCAISiQSGIZ9Pt+VK1ekUml2drbb7Q6FQmq1WhCE2NjYioqKuXPnKpXKPXv2zJkzZ//+/TzPL168uKioqF+/flevXpXL5Z9//nlpaemNGzemTJnS0tLy77//isViiqI6duzo9XrdbjfDMARBQBAEgiDDMB6PRyKRiEQijuMoitLpdCzLTps27fTp0ziOB4PBaDQKQZDVar127Zrb7SZJEoIgsVg8ePDgtLQ0EAQJgnA4HBRF9e7dm2XZiooKsVgMAAAMwwRBYBgmFouj0Wg4HEZRlCRJqVSK47jVal2wYMGWLVswDLPb7QsXLpw1a5bFYklOTkZRVCwWkyQ5Z86c7du3ezwep9P54cOHhoYGlUqVmZmZm5srCEJzc7PP50tMTAQA4NatWxzH7d2798SJExzH3b59++DBgzdv3vT5fAkJCT///HPPnj3nzp0LHDlyRC6XgyA4adKkoqKicDjMsqzNZhsxYkRNTY1cLud5vrm5mSRJBEFEIhFN0xKJpLGxcc2aNZcvX/b7/QqFgmVZm82Wmpra2tpqNpsnTJhQWFgIguD48eP37t27fPnyffv2KZXKhoaGjh071tTU6PV6j8cjEommTZv2448/pqamzps37/Dhw6FQaNGiRd999x3P8126dCFJsqmpaeXKlTt37ly2bNnGjRtXrlw5aNAgh8MhlUp9Ph/DMBzH4TgeDodv3LixcuVKBEH69evncDjatGkjFovdbve6devOnDnz7t07DMMUCgVN07m5uRcuXMBx3O12x8fHsyyLYVhjY+Pdu3djYmLat28fjUYHDBhQWlrqcDiMRqPL5UJRdM6cOWKxePv27YIgOByO//7778iRIzNmzNi2bduTJ084jgsGg6mpqdXV1fX19SNHjqyoqKAoqqioaMiQIbGxsVqtVqfTHT582Gq1duvWDTh37hyGYSaTqaKigud5l8s1a9as7du3x8TEsCz75Zdf4jh+4MCBd+/eJSUlURQ1duzY3bt3a7VapVLp8/nat29fV1cnFotBEKyvr9fr9V6v93//+9+ff/4ZCoWSk5OdTqfBYAiHwxzHJSQkNDU1KZVKhmF4nheJRKFQiOM4FEXD4bBYLMZxvH///iaT6eeff54xY8Zff/3V2Nhot9thGP7rr786dOgAw3AwGDSbzcFgMBQKqdVqCIJ4nuc4DoKg8vLy+Pj49u3bp6WlxcXFKRQKj8cjFovXrl174sQJHMe9Xi/LsjRNz549u7CwsKWlJT8//+XLl//++69MJvv555+PHDkSCoV4nm9sbGzbti1BEO3bt7906dLMmTOLiopomk5KSnI4HDKZTKvVXr16tampqbGxccmSJePGjTty5EhycrLD4UBR1OfzyeVyp9Pp8/mi0WhmZmZ5eXn79u0fPXq0detWg8EAFBUVqdVqnuetVqtGo2CUXc0AACAASURBVAEAgCTJ5uZmjUaDYRhBEAAANDc3m0ymUCiEIIhWqx05cuS+ffuWLFmyc+fOYDBoNpthGK6oqKBpWiaTYRgWCoXmzJlz+fLlvLw8sVh85swZh8Oh0WgQBBEEwel0AgAQCASi0Wh8fLzL5QJBUCwWIwiC43hra6vVam3Xrt3Vq1eDwWBJScnGjRuvXr1aW1vLMEw0Gi0pKcnJyYlEIjiOi0QisVgsEolomgYAQKFQkCSJ4/jw4cOj0ShJksuXL3/8+PHo0aNPnTqlVCoBABg6dOjRo0dRFE1MTHz79q3JZMrOzv7111+PHj1qs9kOHjzIcZxarQ4GgwiCyOVyiqLEYnFzc3NcXJzT6cQwDIKgESNG/Pvvv3K5vKam5v79++FwePz48VKpFAAAFEWHDBkSDocLCwtBEKRp+rPPPquurtZoNGVlZQqF4tKlS3fu3AFYlr13715mZubjx48nT5584MABjUbz4cMHg8HAMEw4HJbL5dFo1Gaz4Tg+Z86czZs3h0Kh/Pz8X3/9NT09vbS0NCEhAUXRUCg0a9asffv2LV26dPfu3TRNp6amRqNRGIZ9Pp9CoRCLxWVlZVKp1Gg0+v3+nJycx48foyg6ZsyYzZs3QxC0YcOGHTt2RCIRv98fDofNZvPYsWMXL15sMpmWLVuWlZUlk8l4nkcQJBAIvH//vnfv3iRJRqNRmUwWiUREIhFN08+fP5dIJAMHDkxNTfV4PNOmTZPJZBRFQRDk9/vHjRt37ty5uLg4j8cTDAZFIpHP5wsEArGxsWq1urW1VSwW4zguEokCgcCIESPKyspgGOZ53m63iz8KhUJ2u33mzJm3b9+WSqWVlZUIgtTV1TmdzmHDhpnN5vr6eo7jnE4nz/NJSUlSqRTH8WAwqNPpAAAIBoMcx50/fx54+vTpixcvvv766y1btmAY1tLSEggEevfuzTDMp59+euXKFUEQKIqy2+2NjY2nTp0aNWpUt27dCILgeR5F0fLycovFolQqrVbrpk2btm/f7vF45HK52WwGQbCpqQnHcZFIpFKpIAhqbm4mCMJoNNI07XK5BEEAAADDMJ7nXS7XsmXLzp49W1NTEwgEUlJSeJ5fsWLF6NGjdTrdq1ev3r9/z/M8hmExMTF1dXVarfb169cpKSkcx5lMppKSki5dugiCoFKp7ty5QxBEY2PjN998k5ycrFarO3ToQJLkhw8fcBzHMEwqlYrFYp7nW1tbR40aBcPwsWPHNBrNyJEjz58/D4KgWq1ubW01Go0EQVRVVYlEIqVSKZVK5XJ5XV0diqI0TeM4HggERCKRWCxeunTp5MmTWZYdOXLkgAEDHj58iKKozWZLSUlxOBw0Tffv3//x48c4jodCoebm5hEjRgCCICgUCovFAkGQUqlsaWnxer3v37+vra01m83Pnj0DAOD9+/csyyoUivr6+vbt2xuNxkAggKIoDMOTJk3avHlzNBqdMmXK9evXFQpFY2Oj0WjkeR7H8aFDh16/fp1lWa/Xq9PpXC6XSqUiCIJhmOrq6l9//XXVqlWxsbGRSCQ3N9fn8xUXF6vV6nA4HAgEli1btm7dumAwyDAMSZLbtm3r06ePRCJ5/PhxdXX1hAkTBEFgWRbHcQiCbt26lZ2d7fV6tVqtz+djGKapqen333/neV4qlcrlcpIk1Wq1zWaLjY2VSqWBQEAkElVUVMhksvj4eJ/PN2LEiJs3b1qt1q5duzocDoVCIZfLBwwYcOrUqUgkgiAIDMM4jo8aNWrTpk3dunUbNmzYpUuXIpGIx+OhaZpl2Tlz5qxZs2bQoEF2uz0ajbZr185qtc6bN+/8+fPBYJCiKIPB4HA4bt26df36dWD16tVisXjTpk39+vV7+fJlv379Bg4cKBKJCIKgabpnz55v376FIAiGYa/XC0FQXFxcMBjEcdzn80kkEq1W29jY2NDQYDQaEQTRarWBQCAYDCYlJdE0LZVKSZJUqVRDhgzRaDR//fWX3W43GAwKheLdu3dxcXF2uz0nJ+fhw4derzc/P//cuXPTpk3bsGEDAAAajcbj8VRVVUUikdevX9M0DYIgwzBPnz7t1avX8+fPu3btevfu3f79+8vl8kAggGEYRVEEQVRUVLAs+91338nl8pSUFJfL5XA4CILAMAwAgEgkYrFY6uvrg8FgQkICy7Jer1epVEokkkAgkJGRUVZW1tTUpFQqdTodwzAEQZAkybKsXq9vbm7GMEwsFkskklAoFA6HYRiOjY3t1auXSCS6ePHi8+fP4+PjV69effjw4SlTptTV1VVXV9M0DcOwy+XS6XQikeiHH34IhULAqVOnZDLZtWvXbt68qVarP/vss65du+7evfvVq1c7d+4cP378qVOnRo8effPmTYZhQBBkWZbneRiG8/Ly9u/fL5fL8/LyLly4UFtbm5CQ0NzcjHxkMpnEYvHEiRO3bt1qsVi8Xq/f71epVFKplOf5+vr6b7/99vfff0cQhOd5pVLpcrmCweCmTZuOHTtWVVVVV1eXkpIilUopitq5c+eqVasePnxYWloaCoX0en0kEnG5XGq12ufzKZXK8vLyrl27ut1uCIJUKpVIJGJZNjc3NyEhIRAIqNVqmqZlMlk0GoUgaPDgwS9fvuzbt+/BgwelUmkgEFAqlTRNazQanufr6uooimrTpo3H45FIJAqFwul0kiSJIAgEQcnJyR8+fIhGoyKRaMKECcXFxfn5+YcPH5bL5S9evNBoND6fb+HChdevX5dIJAMHDnz+/HkgEBg9evSdO3dsNhuGYQaD4e7du6dOnQKePHlSWVnZtWvXHj16WCwWtVoNw7DP55s0adL8+fMfPnxI0/Rnn31248YNiqIUCoXH4+E4Ti6X2+12k8lEUdQXX3yxbds2nuc7depUXV2dlJQklUrr6+slEgnDMH6/PzU11eFw5OXlHThwAMdxlmXnzZtXWFhIkiTHcXK5PBwOoyiqVqvr6uokH1mt1vz8/G+//bZjx46RSEQQhA8fPhQVFT179mzgwIEvXrxITk42Go0YhlEURRBEMBhEUbS4uDg7OxtFUYIgFi5cWFtbu2HDhsOHD3fp0qW0tBQAAIZh7Ha7SqWaPXv2iRMnWJaNRqMsy8bFxZEkOX/+/G3btgEAgCCIwWBwOBwURYlEojlz5hw/fjwSiSgUCq1WO2rUqIMHD1ZXV3/11Vfnz5/v16/frVu3li9f/ttvvwmCEA6HzWZzv379LBbLr7/+arfb37x5s2DBAqVS6XA4cBzHMOzFixcABEFnz54lSfK3335DUZTjOARBvF7v3LlzO3fu3K9fv3/++Uf0kdfrxXE8HA7PmDHj2LFjXq9XKpX6/f74+PhoNIqiaFVVlUqlIggCx3G9Xo+iqMvl6tWr19WrVzUaTUtLCwRBAACo1erW1taYmJhQKESSpEQiQRDE5XIhCMLzPMuyer0+EAio1er6+vqWlpZNmzbt3r37/fv3x44doyiqb9++jx8/lsvlMTExEomEpmlBEG7dupWZmSmVSiUSCUmSAwcOTEpK2rZt29mzZ90fCYKAomg0GvV6vTKZTCQSEQShVCqj0ajf729tbVWpVIsXL/7777+zs7OPHTu2aNGiY8eONTU1yWQym81mNptzc3OLi4sHDRr0/v37QCAQjUY9Hs+kSZOOHj0KQZBOp2NZdtCgQYcPH6YoKj4+HgTBkSNHvnjxYvv27TAMDxs2LDU19e3bt+np6cD/KygooGna5XIlJiY2NTVt27bNYDC43e6KiorS0tK6ujoYhgVB4Dhu5MiRR48eFYvF9fX1MAy3a9fu3bt3Foulrq5uxYoVRUVFPM8TBIF95PF4vF4vhmE8z4MgqNFosrKy/vnnn2AwSBDE/PnzT5w4IZPJHA5HJBLBMMzpdGo0mvj4+Hfv3tE0LZfLJRIJCILV1dWCIEgkkvnz52/cuLGxsbG0tJRl2dbWVolEolKpamtr09PTeZ73eDxSqRRBkC5duqSkpDQ1NZ08efLIkSMwDNfX16ekpHAcp1arQ6FQWVlZWloaDMMgCIZCIRiGIQjKzs6+evUqDMMOh8Pr9bZp00apVAYCgUgkMnr06NOnT+t0ut69e9+7d6+ysjIxMVGtVnMc53A4MAyTSqWTJ0++cOHCgAED9u/f73A4MjIyUBQVBKFnz54xMTEfPnzYvn17bGxsMBi02WwdOnQACgsLW1paOnToEI1GRSLR119/DQAATdPJycmLFi16/vz5tm3bXC6XyWQqKCiYPn36999/39TUtG7duoMHDxIEIQhCOBxWq9UejycuLo6iqAkTJjx58sRmswEAwLJsS0vL7Nmz5XL5rl27JkyYcOXKFafTiWFYamoqSZJDhgzZt2+fVCpVq9WZmZl3796VSCQsy0IQ1NTU9OOPP27btm3q1Knz588/cuTIqlWrysvLPR+Fw2EcxyORyNu3b7OyshiGQRAkJiZGpVLl5OSUlZXFxcV16NDhzZs3ycnJI0aMSEhI2LFjh0gkam1tdblcRqMRwzBBEKLRKIZhcrkcgiCSJDmOs9vtKpVq0qRJx44d8/v96enp9fX1IAiqVCqJRGK327/66qvt27cDAJCSklJXV6dUKgcMGKBUKq1W661bt0iSBEGwtLQ0ISEhPT3d4XDQNB2JRMxms9frra6ufvfuXVJSEoBh2J9//qlUKrOzs9Vq9aBBgzIyMr788svRo0dfvHjxzp07NE0bjcZIJNLa2jpu3Lh3794dOHAAw7CMjAyxWMxxHEVRMplMoVCgKNrU1ITjeHx8fGZm5o0bN6xW65gxY86fPy+TySwWi8/ns9lsfr9fq9WKRCKZTMZxnFwub2pqYllWKpW63e7c3NxLly5JpVKJROL1esePH3/69Gn/RziOy+XyL7/88sCBA8+fP9+7d+8PP/xgNBpXrVq1adMmiUQSDAb1er3VakUQBARBAAAkEsmyZcsIgrBarRcuXFizZs38+fNRFI2NjeU4bsyYMRcuXEAQhOd5mUxWVVVlNBpbWlqUSmVlZeXs2bMfPnyoUqkqKytTU1MDgYBCofB6vRMnTrx48WIoFAIAwG63t2vXzmq1Llmy5ODBgxKJhOd5lmWnTp2an5+fkZExffr0x48fi0QiiqJQFMVxfMCAAVu2bAH27t1rMpny8/P379//+PHjxMREs9k8ZsyYb7/91ul0tra2zp8/XyKRNDc3syy7ePFiq9V6+/bt3Nzc27dvOxwOg8Hgdrv1en0oFCJJEgAAhmGysrJSUlKKi4tnzJixatUqhUKBYZhYLDYYDE6n02QyPXr0KCYmRiqV+v3+9u3bjxo1avfu3WKxuEePHrW1tS9fvkxKSvJ4PJ07dz5z5kzv3r0hCMrOzt65c2ckElGpVOPHjz979mxZWRlBED/++OM///xTX1/v8/mWLl26YcOG2NhYg8FQU1OzYMGCQ4cOAQCgUqlCoZDRaIx8FA6HGYaRy+U8z6ekpGRnZ58/fx4AgKdPn2ZmZtrtdpVK1djYCADA3LlzDx48CEGQ3W7v0aMHwzAOh8NgMAwfPry4uFgkEikUip49e54/fx6CIJZl586dKwjChg0bwuEwjuPNzc1z5859/PixyWRqbW01mUxz586dOXPm69evgR9//DEhIQEEQQRBotEoTdMsy4rFYgRBnE4nwzDdunUTiUR1dXVqtRqG4Ugksnr1aq/Xe+rUKblcjmFYa2trKBSiKMrv93/22WckSb5//z4vL+/Zs2eRSITjOJfLRVEUjuPLli3bunWrXq/v3LlzWVkZRVE//fTTd999JxaLc3JyUlJSysvLTSbT1q1bJRIJDMPRaBSCIAzDZDLZ559/vn79ehiGAQCgKIrneYlEQpIkQRA+nw8EQafTmZyc7HQ6f/nllwMHDohEIo7jXC4XBEEmk8nr9RoMhry8vJ9++qlt27YYhkWjUa/XG4lE/H6/SqWKRqMoino8njlz5pw4caK8vHzLli3nzp2bPXv2ixcvbty4ER8fHwwGW1tb9Xq9x+MxGo04jrtcLoqiTCaTy+XieV4mk4XD4VmzZu3cuZPjuNevXw8YMCAvL+/WrVvDhg3bu3fvJ598UlZW9scffwDFxcVutxsEQUEQ7HZ7MBhs166dIAhSqdRkMnXp0mXZsmUAAOTl5Tmdzmg06vf7lUqlTqezWCy3b98mCEIsFjMME41G586dW1paWlJSolKpzGbz69evJ02aVFJS0trampCQUF9fj2EYBEFer9dkMiEI4nA4EhISKIoSiUSBQACGYY7jzGbz+/fvw+GwyWT68ssvV6xYYTAYzGazzWb74osviouLP3z4IJFIwuGwRqNpbW2VSqV6vf7Dhw86ne7zzz+/fv16c3Oz0+nEMCwhISEQCKAo6na7ZTJZOByeMGFCp06dvv76a6PRyDAMSZIoijY3N6MoOnHixKqqqvr6ep7nhwwZYjKZtm/fbjQaSZJcsGDB1q1b165de/z4cY/Ho1AovF7v/PnzCwoKtFqt2+12Op0rV678/fffsY8EQeB5vrW1taKigqbpadOmIQjidrv79+8fHx//5Zdf3rlzB7h9+3YoFAJBUKFQnDlz5vLly+/eveM47uLFizzPFxQUvH37VqVSLV26FATBjh07Wq3WmpoauVyu0WgYhgFB0Ol0Go1GtVrd3NxsMBggCIpGozRNoyhK0zSKolarNSUlpaKiAkXRefPm/fHHHxaLhSRJiUSiVCqbmpokEonP5/N4PAkJCSzLRqNREARxHO/Tp8+1a9eCwSAEQc3NzQaDgSAImqalUmnbtm1dLhcEQaWlpQsWLLh+/brH49HpdIMHD8ZxfNeuXR06dHjx4oVCoQBBUCqVBoPBadOmlZWV9e7dm2XZw4cPT548+erVqxAEBYNBnucFQZgxY8aJEycWLly4YcOGhQsXer3eW7duBQIBsVgskUhIkgQAAEGQ/Px8kiR37dqVmJgoEokikQhN0wRBQBAEw/CAAQOKiorcbjcIgi0tLfv27du1a5dMJiMIwuPxNDc3r127Ni0tDSgsLAyHwz6f78WLFzdv3tTr9Z9//nlubu7r1681Gg3P8/X19UVFRTAMT5w40eFwNDc3i0Si3r17V1dXkyT57bff/v333wqFYsKECRcvXrRarXK5vLm5OTk52Wq1qtVqBEFaW1uj0ejatWsPHjyIYZggCGVlZX379s3Ozt6zZ8/GjRt37Njh9/tFIhEIgoFAoF+/fu/fv580adLRo0cxDOvZs+ehQ4fi4uJ8Pl9iYmJLS4tOp3O5XCRJdu/ePRKJ5OTkfP311xiG0TSdmpqKIIjX69Xr9SAIajQamqZramokEklcXFx2dvbx48cJgpgzZ87p06cpipJIJFKp1O12+3w+g8HAMEwoFMJxPC8v7/Dhw5WVlX369KmqqlIoFBqNxuPxrF69+sCBAy6XS6PR6HS62traxMREm81GURRBED6fjyRJGIY5jlMqlSKR6O+//+7UqVOvXr0QBAEAwO/34zh+4MABYO/evWfPnm1tbWUYRiQSEQRx586du3fvBoPBaDQaHx8PAMD//ve/q1evRqPR9u3bR6NRo9GoUCj69++/fPlyCILu378/atSof/75x+/3azQav99fWlrKcdzWrVvPnDlTV1d36dKlGzduhMPh8+fPoyjqdrsXL17Mcdzhw4cpikpMTKyrq2vXrt3QoUMFQbh8+bJIJOrVq9elS5emT59+4MCBr776aufOncFg8Ouvv/7jjz9mzpwZCoWKiopomk5PT29tbY1GoxiGqdXqrKysS5cutbS0pKamDhkyZO/evXFxcdFoVCaTffjwYdq0aRcvXgwGgzAML168+OTJkxRFud1uDMOys7MfPXrU0tICQRDP8998883hw4erqqri4uLcbjcMw3FxcXV1df369Xv9+jVJkmazORKJpKWlWa1WrVZbX1/v9/tTU1OtVqter6+vrwdBkGEYpVL55Zdf9uzZc82aNV6vd/DgwQUFBSzLvnz5Ejh37lxpaWlRUZFUKmVZNhKJfPHFF3379q2urk5JSSFJ8r///isoKMAwLBQKwTCsVqtdLlfHjh0JgggEAqFQqF27diNGjHj//n1ycjLy0atXr7799tvi4mKGYerr6//888+lS5cSBBEOh41GIwiCdXV1arU6GAxaLJaWlhYQBC0Wi1Qq/fDhQ3x8fDAYdDgcio9CoZBCobBarT6fb+TIkSUlJRzHBQKBhIQEu92O43g0GjUajS6Xq3v37qWlpY2NjbGxsYIgcBw3bdq0c+fO+Xw+mUwGAACCIB6PBwCApqampKQkh8OhVqtFIlHv3r0vXryo1WoZhvH5fN99992ff/45ceLEzZs3r1+/fseOHRKJJBKJAACwevXqX3/9VaVSAQAgl8sXL168Zs0ahUKh1+tdLlckEhGLxYIgRCIRDMNaW1v9fj9N09euXXv16tXx48cNBkMkEgEAQCwWA2fPnvX5fP/999+9e/cwDAsEAhMmTMjOzq6urkZR9P379+fPn2cYRi6Xh0IhCIIAABg2bNjZs2dXrVpVUVFRU1NjMpnmz58/atSohoYGQRAKCwt/+eUXq9U6fvz4rKwssVi8ffv2IUOGDBs2zGq1Tp48mSCIy5cvh0Kh2NjYqqoqh8Nx7dq1cePGRSKRZ8+enTp1qqCgIBQKrV279ujRoxRFqdXqzMzMo0eP0jQdiURomk5MTJRKpQiC2O12lmWNRmMwGKRpGsdxhULRv3//hISEn3/+GcdxnudXrVq1Y8cODMOGDx/+4MGDjh07wjB89OhRpVIZjUYlEgmKooFAAEEQFEXr6uoWLlz4+++/oyhKkqTBYCAIorq6mmGY9u3b19bWJiUlmc3mwYMHHzp0CAAAkiQFQZBIJBqNhqZpGIaDwWBDQ0N8fPy4ceP279+/bt26oUOHFhQUPH36NBgMulyucDjc0tIC7Nq1C8Mwv99fXFzc1NQkkUi6deuWn5/vdDqbm5tLSkpu377t9/szMjIAALDZbDiOT5s2beXKlRcuXNDr9aWlpYWFhYIggCBYUlJy7dq13r17X7ly5ezZsw8fPoyLixOJRA8ePJg1a9bu3buNRuOuXbtAEAwGg3K5HEXRhISE1NTUH374YefOnf369Xvw4MGOHTuWLVtGUdTp06dlMpnNZkMQRKFQWK3W2bNnnzp1iiCIQCBAEMT06dO3bdv2008/rV+/HkVRHMcDgYBKpWIYRqlUNjQ0JCcnd+/e/e7duz6fb9GiRadPn+7Xr9++ffs4jjOZTPn5+VevXu3Tp88vv/yiVCplMtnw4cMPHz5MkiRFUZ999lnfvn2PHj3KMIzZbH716lVCQgJBEA0NDTt37tywYcOYMWOKi4tnzZq1Y8cOhUIRiUSUSmUwGEQQJBgMSiQSDMMIgujXr9+yZcsoipo4caJMJnM4HAAAvH//Hvj777+tVqter6+pqdm5c+f48eOnTJny7NkzmqaTk5OPHz/+5s0blUoVCATEYjHP8wzDUBR14cKFmpoasVjscDimT5++fv36DRs2/Pjjj126dOF5fvjw4QaDITc3t6ys7L///uvatavJZCoqKjp58uSYMWNkMtnt27cVCoXb7dZqtf379//hhx/Gjx///fffl5WVtba2OhyOwsLCefPmnTt3DgCA5uZmk8nEcZxEIgmHw16vd+LEiXfv3u3fv/+NGzd8Ph8IgmKxWKlU2u32jIyMN2/eKJVKvV5fV1cXCoU6duz4ySefXL16VSqVBgKBtWvXvn379v79+yNGjNixY4darY5EIsFgUKfTud3ulStXFhYWWq1WlUpVVVX1008//fLLL5988klra6vL5TKbzYMGDTp9+rRSqWxqakpOTmZZNhwOAwAgk8nGjBmzZ88erVY7ceLE8+fPOxyO/+MILsCjNhgGAF+Si1xOct5re1cXCi0+YDCGTGClSHGXUvQfG4PBGGwwNj5sMGC4b7SlOBR3d4dRKtTb67kml0suyeV/Ht5XEIRIJOJwOK5cuTJt2rT27dt37dq1tLQ0Go0CT58+rayslEqlwWBwx44deXl5HTp00Ol079+/f/78+ZMnT3AcF0WRZVmO4wwGg8PhyM7OTklJmTBhgtfrZRjG6/W63e7s7Ox+/fodO3asublZoVAsXrx4/fr1u3btUqvV9+7dGzJkSH5+/vjx4/fv379kyRIAALZt26bValEUbWpqgiDo+PHjJpPpwYMHBQUFiYmJa9asGTNmTFpamlarra+vhyBIr9eHw2EYhkeNGnX48GEURWmaVqlUWq22f//+EonE6/WePn1arVaLoshxHIZhoigyDENRlNlsjouLe/369dSpUzEMa2hoePfuXTQa5TjO7XYHAgEURUmSRFGUYRiZTLZgwYJ169aJooggyPz585cvX+7z+RQKxcqVKw8dOiQIQjQanTt3Lk3T+/fvl8vlDMOAIKhSqQwGQ0JCwu3bt0OhkEQigWE4Go3W19c3NDRs2rTpypUrKSkpLpfL7/cDR44cmTlz5tq1a00m08WLFzEMKyoqWr9+PUEQgwYNmjJlSnNzM4IgT5486datG8dxPM/b7XaVSrV06VKTyVRVVZWUlCQIglwuB0HQ6XQqFAqKomQyWX19/a5du3Acp2kahuFx48aZTCa/35+WllZVVdWtWzeSJD0eT0NDw9OnT1+9erVhw4a///4bQRCGYUKh0KRJk2JjY2UyWWxsrM1mQ1E0HA6r1WqSJDmOQxBkyJAhhw4dSkxMfPny5erVq8vKytxud0FBwfnz571ebzAYVCqVKpWqoaGhubm5b9++LS0tKpXKarUajcZwOKzVahEEeffundFolEgkMTExvXv3/vPPPxUKhcFg8Pl806dPRxCkqKiopaUFhuE1a9asX78ex3GlUul2uymKKiwslMvlR44c4Xne7XZnZGQIghAIBDweD0EQEASFQiG3/TqCJwAAIABJREFU242i6L1797Ra7XfffVdXVzds2LCbN28CFy5cCAaDVqtVrVYHg8Hm5uZBgwb5fD6GYQiC8Hq9JSUlx48f79ev37t379q0aSOKIo7jVqu1S5cu+fn50Wg0ISFBIpGoVKqGhgaSJDMzM0OhEIqiLS0tpaWlHz584Dju1atXW7dujY+Pr66u/uKLL3w+H0mSEATpdDqapgVBSE1NPX/+fGlpaSgU6tKly9y5cwsKCmw2WygUUiqVZ86cQVGUYZj8/PzDhw/L5fKqqqq1a9du2bIlOTl506ZNDofj5s2bT548USgUNpsNw7D379/Pnz//5MmTo0aNWr16dWJiotFo9Hg8LpcrGo0yDINhmMViEUWRoqhgMMjzfFJSksPhMBgMDQ0NBoPB6XTqdDoURV0uV3Z2dp8+fQ4dOmS32zMzM1UqVXV1dXJyss/nCwaDLMsSBKHVakmSxHF88uTJ586dS0xMTEtL27Jli9frbWxs3LRp0927d0VRrK2t1ev1wPHjx6VSqVarrampkclkHz58mDp16osXL1iWFUXx6dOnXq/3yZMnOp3O5/OBIKhWq8PhcCgU+vLLL9u3b4+iKEEQTqdTqVTSNA1B0MiRIw8fPoxhGEEQx44dq6ysNJvNdru9T58+KSkp4XDYbDbTNA3D8Lx583bv3p2VlfXmzRupVDplypRJkyap1WoIgj799FOapqdNm3bixAm/34/juEQi4TiO53mCIPr27Xv16lW73T5//vydO3fu27eve/fu06ZNq6mpaWpqSkxMJEnSZrNptdoJEya0a9cuLS1t4MCBMpksLi6uV69eMpns3r17HMdFIpFoNBoMBgmCgCCIJEkYhiORCI7jgUBg1KhRp0+fjkajLpcrNjYWRVGTyVRXV0eSpPqjlpYWk8nk8XiGDh16584dr9fr8/l++umnf/75B8dxgiBYlm1qanK73RRFVVVVPXz4sLS0VCaTMQwDFBUVKZXKGTNmNDQ0lJWVEQRB03Q0Gh00aNC///5LkmRDQ8OVK1cSExNRFL1161Z8fLzJZLp+/fry5ctXrFhx+vRpqVQ6duzY1NTUNWvWdOnSpaamhiRJg8HQ2tpaXV3966+/0jS9cuVKDMPatWvHcRxN0zNnzjxy5AjLsgiCRKPRyspKFEXr6uomTpwYjUbHjh27a9cuDMP8fr9UKg2FQklJSTabjWGYzMxMj8fD83xMTEyvXr0ePHhgt9tv3br13XffXbx48dixY62trR07dvzyyy+PHTs2adKkV69e3b17VxRFnucHDx7cpUuXrKys3r17Hzt2zO/3RyIRHMe///77LVu2hMNhtVoNgiAEQSRJQhD033//oSiamJiYl5d38uTJcDiMoiiCIDzPEwQhCMLo0aOLi4tlMlm7du1aWlpwHP/qq68OHjyIYRj/kV6vb25udrlcc+fOHTVq1JIlS0RRDIfD0WgUWLNmDUEQAAB07ty5R48ef/75Z0pKSn5+fllZGY7j0Wj00aNHZ8+enTdvXnZ29qlTp/bs2dOpUyetVnvz5s2SkpLKysq2bdvm5+fv3LnT4/H88ssvFy9e9Pv9FEUlJSUlJiZOmjSpffv2Bw4c2LZtWygUgiDIYDCgKIogSCAQgD+y2Ww5OTl2u3348OH79++3WCwDBgy4fPkyjuNOpzMUCplMpubmZhiGNRqNx+MZM2ZMWVnZ1KlTXS7X5cuXv/vuu82bN4ui+Pz581WrVo0bN660tJSmaRAE27RpEx8ff/fu3d69e4MgOGLECIvFAgDAixcv2rVrJ5fLpVKp3+9nWRbDMEEQFAqFRqMhCOLdu3cYhjEMI5VKzWZzY2Pj9OnTHz9+3Lt37+3bt0skEhiGp0+ffvjwYYqiZDJZ7969nzx5gqKo3W6fO3fu9u3bY2JiJBKJ3+/X6/U3btxoaWmZOXNmKBTyeDyVlZUADMPff/+9IAgSiWT9+vU7duyYNWuWTqc7fPiww+HgOG7Lli0QBLW2tn733XeRSKRjx45z585dvXp1SkqKy+UaM2bM8ePHlUrlmDFjXC7X9evX1Wp13759b9y4AYLg06dPa2trAQBo3759TExMY2OjzWZLSUmZNm1aUVGRxWLheZ6iqFmzZh0/ftzn802cOLGsrMxqtSqVSrlczrJsQUHBmjVrQBBcsmTJyZMnOY4LBAJGo7GpqWnGjBmXL18mSTIUCvl8vqysLIZhpFKp2WxuaGjw+XzLly83m80kSfI8r9PpQBAsKCgYOHDgrVu3Ghoa4uLiuI9gGIYgiKZplUrFMAwEQQzDRKNRDMNCoVBMTAyGYVarValUkh8lJyd/+PBhx44dv/76q9Pp1Ol00EdKpTIYDE6cOFGr1W7YsMFoNAYCAalU6vP5HA7Hu3fv9u7de+PGjfHjx2/ZsgVYsWJFJBKhKMrv9+fn5zc3N+fm5r548UIQhGg0CgCAw+E4ceJEfHw8z/ODBw+eNGnS3r17kY/0ev3w4cNPnz4dCAREUTSZTN27d798+fLo0aN9Pt/t27f9fn/dRx06dHC73RaLhef5tLQ0lUrVsWPH0tJSvV7v9/sVCoUoihAEKZVKiUQilUoZhqFpmmEYqVQajUYJgujevfvDhw/79et39uxZFEVpmgYAYPjw4fv379fpdCAIAgCg0+kkEonP58MwbOjQoYsXL87Ly7Pb7R8+fLh//74gCOPHj5fL5TRNx8XFde7cGcdxt9t969atgQMHPnjwQKlUVlVVoSjKsqxUKk1NTe3fv/++ffsoiiooKDh06BCCIAAA4DiempoqlUofPnzYtm1bQRBEUWQYprm5ecaMGYcPH1YqlVOmTNm1a9eaNWtWrlz57t2758+ff/LJJz169GhqaoJhGEEQYMWKFRKJpKamRqfTpaenG41GnudBEFQqlQAACIJQV1d34sSJSCTS2Ni4cuXKhIQEuVxutVqVSmVsbGxKSorH47FarSRJAgDgcrksFktra6sgCIMHD37w4IHT6QyFQl6vF0XRP/74Y926dTExMRKJRKFQSKVSm802fvz48+fPG43G8vLydu3auVwur9erVCrFjziOoyjK5/PFx8fzPL948eK1a9fSNJ2cnBwKhRQKBcuyCIIMGjTowoULVqtVKpVqtdqCgoLTp0/7/X6z2VxTU1NcXCyTyTIyMkwm0yeffNLa2mo0Gnmez8jIePbsmc1mi4+PxzCssrJSr9dDEPTVV19lZGSsXr06OTnZ5XLRNB0bGztkyJCysrJIJMJxnFarbWhoiIuL4zjObrevXbt28+bNfr9/2LBhd+7ccbvdcrkcwzBBEEKhEEVRQ4YMuXbtWmxsbHl5OYIgBEEA4XB48eLFZrN51apV8+fPb9OmzYgRI1AUPXv2LEmSN2/ePHDgQPv27XmeT0hIGD16tEwmU6vVbrc7NjbWbre7XC6z2UxRlEql+uabb86cOaNWq202W85HL1++rKqqOn/+PI7jycnJGzZs+PPPPxEE0Wg0GIb5fD6FQqFSqQiCSEtLe/r0qc/ni0QiCII4nU4URX/++ed3795hGMbz/OHDh1taWkwmEwAA0WhUEITvv//+9OnTPM8bjUaPx6PX63meV6vVPM83NzfLZDKDwRCNRimKunbtWm5uriAIra2tEATduHGjb9++MpmM53kQBIPBYDQalcvlSqWSpmmj0ej1enEcdzgc0WhUq9VOnDjx6NGjLpdLKpXGxcVVVFTExsa6XK45c+acOXPG5/PBMMyyLARBJEl2797dbrd/8cUXjx8/djqdVqvV6/U2NDQMGzbM5XJ5PB6dTieXy4ERI0YQBIFhGMdxKpVKFEWtVpuUlDR48OD//e9/RUVFHTp0IAji0aNHU6ZM6dq1KwRBzc3N//d//7d58+ZOnTo1Nzfr9fr379/37Nnz3r17AACEw+EpU6bU1tbm5+eHQqH//e9/O3bsgCAoOzt7wIABKIp6PJ7k5GSr1cqybE5ODgRBTqdTpVJ5vV6NRlNdXb1hw4atW7cCAKBQKEAQfP78uSAIAAAkJCSgKNqzZ8+ysrKCgoJ///3X4XAsWLBg48aNmZmZSqUSRVGXyyWTyRAEGTx4MMdx+/fv79SpU05OzqFDh27dukXTdF1dXf/+/XNzcyUSyTfffLN7926apuPj40EQ9Hg8MplMqVQ6HA6pVOr1ejMzM71eL47jPp9v+fLlK1asmDZt2uXLl51Op0KhmDJlyoEDBxISEhoaGiQSCQiCoVAoKSnJ5XKBIDhhwoR//vmHJMk3b95oNJrVq1cvXrw4JydnzZo18+fPBwYNGpSQkCCXy0Oh0M6dO6dOnUqS5NWrV5ctW2Y2m0tLS2tra2UyWWlp6ZMnTzIzM1++fIlhmCAIKIqqVCqn0ymKolwunzlzJoIg+/fvDwaD0Wi0oKDg2rVrgiB8+umnPXr08Pl8gwcPzs3NZVk2EomIopiQkOBwODAMEwRBKpUyDDNq1KgNGzZ07NixQ4cON27c4HkeBEGXy9W1a9eGhgYcx91uN0EQcrmc53m9Xu/z+RiGCQQCkUjE6/X+/PPPBw4cSEhIcDqder0+GAwOHDjw+PHjJpNJEIRgMPjq1Sur1SqXy6dNm9a5c+fLly9LpVKVSlVfX49hGEEQLpdLKpWqVCqXy6XX6wEAkEqlFEX5/X6NRgNBUCgUikajkUhEFEWNRuPz+WQymcPh0Gq1CIKsXbt2z549VVVVPM8TBGE0Gqurq0Oh0IcPHzp27EjT9Nu3bz/99FMcx2maBrp27TpixAie51esWPHbb79NmTIlPz8/NTW1b9++y5Yt++uvv4qLiwcMGIAgSHx8fGxs7KtXr2AYNhqNqampHo8nEAgoFAoAAILBYGtr66VLl0iSvH///rVr12AYpijqxo0bZWVlwWBw2LBhHTt2BEFQq9VKJBL6o7i4OLlc7nK5mpqaAADQ6/U4jnMcF4lEFi5c+M8//zAMY7FYXC4XDMMIgrAsW1BQsHXrVo7jzGYzSZI6nc5sNp89exZFURiGA4EABEEWi0Wv14uiSFGUKIrx8fHl5eVTpkwBAIAkyXv37tXU1HTs2PHVq1dSqRQAAK1W29LSMn369H379o0YMSInJ2f9+vUAAEyePPnkyZNSqVSn01mtVhRFpVJpQUHBmjVrfv311z179oRCIYlEEgwG27RpY7VaPR6PwWAQRXHevHnHjx+vqakpKyvr3Lnz4MGDz549u2fPnoMHDw4aNGjp0qVAr169cnNzf/zxxw0bNsyePfuHH35obW1NTEzs1q0bBEG1tbVxcXGZmZlutzsSicTExBQUFKxduzYhIcHn8ykUivbt2z948KBbt26nT59OTk7evn378OHDMzMzMQxzu92RSMTj8Rw6dMjhcAwYMKBbt24FBQXNzc23bt0CAACG4e7du585cyYQCLRt29bj8Xz22Wd2uz0cDjc2Nmo0mmHDhhUVFSkUCuij3Nzca9euFRQUbN26ddiwYcXFxXq93mq1xsXFTZw48ejRo6GP3G53OBw2mUwSiSQnJ+fx48cajSYxMVEURbvdPnz48Pj4+D59+rRr1+7atWuFhYUWi4XneddHRqNx0qRJLMuePHkSRVGJRBIOhyUfoShqs9lSUlJomm5ubtbpdCAIfv/99+/evbt69apCoZg6dermzZuRjyQSCQzD1dXV9fX1nTt3njNnzpQpU3r06AHDsFQqraysBPr160dRVFpamkKhePv2bfv27S0Wi9VqTU9P12q1crnc5/OZzWYcx+vr6y0Wi91uT01NtdlsJpNJFEW73Y6iaCgUkslko0ePLikpyczMfPfuHQiCw4cPf/z48du3b//991+3292tW7cvvvjihx9+2Lt3b3l5OcMwvXv3RhBk8uTJGzduBEGQ53mJRDJs2DAMw8xms9/vLyoqCoVCOp2OoiiWZWfPnv3vv//K5fJwODx8+PCioiIQBDEMYxgGgqDZs2fv3r3b5/OtW7fut99+s9lsOI4vXbr033//jUQiaWlp7969wzBMpVKBIMiy7NGjR7OysoYNG8ayrMPhUKlUgUDg6dOnarVar9er1WoIgqxWK47jWq0Wx/HGxkaCIFiWjUajIAhKJBKv12s2m30+HwAAcrnc6/VOnjz5yJEjKIryPM+y7PPnz7Ozs1esWLFnz56Kioq4uLhJkybV1tauWrUK6Nq1K8uyFEXxPA/DcJs2bR49egTD8C+//CKKYmFhYXFx8fTp08vKyqZOnRoKhQ4cODB+/PgHDx7079+/qKgIw7CxY8devHjR5XLl5OQ0Nja63e7Y2FgAALRabWVl5fjx4+fOnXvv3r1PPvmkb9++PXv2fPv2rSAI79+/HzBgwKNHjwwGA8/zWq02EAio1WqWZUmSjEQiBEEYjcauXbtmZmb++eefMAyzLIsgSCgUIgiiqampY8eOPp8Px/FwOOx2uzEMgyDow4cPixYtunr1qlwuf//+/dq1a1euXCmXyzMzM71eb79+/aqrq9+/fy+Xy8+ePZuQkDBv3rwVK1YcPHhw1apVZrM5Jibm9OnTnTt3pihKoVAAAABBUCAQQBBEqVSGw2EAAAiC8Hg8MAwHAoGkpKTGxkaO42AYFkVRKpV+++23JSUlN2/eDAQCBw4cuHnzJoIgr1+/rq2tzcnJgWFYFMVXr14BCQkJarUax3GGYbRaLUmSXq+3S5cuX3/9tU6nCwaDWq02HA43NDRkZGTQNA2CIMuyf/zxx9atW8Ph8LRp00pKSkAQlEgkEATxPA/DMMdxDQ0NqampkUgkFApRFLV8+XKn00nTtCiKJSUlkydPvn79ekVFhd/v79GjR//+/YuLi9VqtSAIkUhEIpGMGzfu+fPndXV1DMPQNJ2Zmenz+dxuNwzDNE2zLKvRaNRq9fjx48PhcFFREQRB4XAYRVGFQjFjxowtW7ZoNBpRFF0uVyAQAEEwOTm5ublZo9GMGDECRVGO42iaXrx4cUlJSTgc7tSp06JFiziOA0HQaDRardby8nK9Xp+UlIQgiEQiqampiYuLy83NvXnzZk1NjUQiyc7OHjBgwJYtWxYuXFhUVOTz+RAEIQgiGAxWVVUtWLCgpKQkJSXF4XCkpKR4PJ66uro+ffp4vd6nT5+63W7A5XINHz7c5/OBIDhu3LhHjx4dO3ZszZo1PXv2XL9+fXx8/MSJE61Wq8vlqqys7NSp0w8//ACCoCAIO3bsMJvNEyZMOHfuXHl5eZs2bWpra1UqVV5e3vXr1ysrK7t27epwOERRDIfDt27dSk9P12q1SqVy/Pjx169f53m+vLw8Pj5eq9XyPO90Ok0mE4Zh9fX1EokkGo0uXLhw586dLpcrPT2d47jZs2c/f/789u3bBEEIgmC1WtVqNQRBSqWyubk5EAjMnDnz6tWrMpkMgiCfzwfDMI7jSqWysLDwhx9+ID4iSVKj0QiCYLPZ9Hr93r17//vvP5Ikv//++5UrV16/fn3y5MmNjY1arXb37t1NTU0YhiEIYjAYbDZbbGzskiVLNm7cGAwGEQRRqVSTJ092OBwHDx5cunTp6tWr1Wp1MBh89eqVwWDIysoiCMLn89E0bTAYXr9+XV1dnZeXR5IkRVE//vgjMGPGjCNHjhiNxpcvX+7YsePGjRtqtTo3N5eiqOnTpx8/fhz5yGq1zpw5c8uWLX369PF6vePGjduyZQsAABRF6fV6jUbDMIzb7Y6Li+vQocPTp09FUdTpdC0tLbGxsU6n8/nz52fOnBk5cmSHDh3++++/nJwcGIZra2vbtm3LsuyoUaOOHTvGsmxLS0tSUhIEQSRJJiQklJeXwzC8cOHCgwcPSqXSUCjE87wgCEOGDLly5QqO4xAEBYNBnucRBOF5Pj4+vrm5efr06RcvXrTZbOnp6eFwGEVRh8NBUdTUqVN5ni8qKpowYcKdO3du377drVu3vLy8adOmabXa1tbWSCSSl5enVqshCJLL5V9++eXDhw8/fPgwfvz4YDC4efPmrl27BoNBAABsNhuCIB6PRyaTYRjmcrmUSiWO4zNmzDh16tTcuXP379+v0+kCgcBPP/20d+/elpaWkSNHHjlyBMMwGIYfPnwIjBkz5quvvnr8+HE0Gg2HwwiCnDhx4unTpy0tLdFo9NNPPy0qKrJYLDqdrry8fO7cuevXr+/Xr9+jR49WffTrr7/++OOPGo1GrVZbLJb+H/3f//1f3759L168KJVKAQCw2+0tLS2zZs26du2aIAhWqzUjI8PpdBIEAUGQw+EYO3bsgwcPSJJkGIYgiOHDh1++fNnpdA4YMODOnTuhUCgrK6uhoQGG4XHjxh08ePD//u//1q9fz/N8mzZtGIZpbW0dOHDg27dvYRiuqKj45JNPAoEAy7IkScpksvHjx1+7du2bb77hOG737t0ajYYgiEmTJhUVFYXDYZvNFhcXV1NTs3v37qVLl6rV6urq6qSkpEGDBr148UIQhHA4PHTo0OLi4rdv365Zs2bevHlGoxGCoIaGBo7jpFKpxWKpr69PSUlJTU0NhUI4jo8cOfKTTz7x+Xx//PHHnDlzDh06xDDMw4cPs7OzW1tbExMT379/D6xfv/7Vq1cWi8X4EcMwGRkZIAg2NjYKgmCxWHie79q167FjxxYsWNCvX7+YmJg+ffrIZDKTyWSz2TZt2jRq1KjZs2ffu3dPo9E0NjZu3rz5888/37x586lTp/r163fixAmHw5GZmXnkyJE2bdpwHBcTExMOh1mWRVE0Pj5eLpf37Nnz2LFjc+bMOXjwIIqiEAT5/X6CIHAcHzdu3LFjx0AQ9Hg8OI7bbDapVBofH+/xeGAYJklSpVIFAoHCwsJTp07ZbLZvv/32zJkzHMcxDKPRaEAQlEgkkUiEoiiDwfD+/ft58+YdPHiQ47i4uDiWZT98+EDT9L179xiGyc/Pv3HjBgRBc+bMef78+apVq+RyeVlZmcPh0Ol0DMNotVqfzxcKhb799ttt27bp9fqGhgadTuf1ei0Wi8PhyMrKAkHQ7/eDINjU1CSTyaLRqPSj3Nzc1atXz58//9SpU1KpFABBcPfu3QMHDrTb7T6fLz8/v7i42OPxbN26VafTpaamjhgxol+/fmfOnGloaDh//nwoFMrOzp42bVo4HGZZtqWlpUuXLl6v1+/3azSa4uLiqqoqQRBwHM/IyNiyZUtlZeXr169TUlIuXLiA4/jChQtLSkr0en1TU9P06dOvXLkSiUSCwaBKpZJKpSiKCoIwd+7c0tJSu91uMBjkcnlTU5NMJrPb7SqVKhwOp6amWq1WURTnzZu3a9cuAADkcrnD4VAqlePHj9+8efPKlSv//vtvBEGmTp166dKl1tZWlmUFQYiNja2trY2Pj1coFGPHjt28efP06dN37dpVU1PjdDpv376NIIhOp3v16tXYsWMFQbBYLPPnz7979y7Lsnq9Hobh8vLylJSUPn36XL9+3e/3K5VKg8HQ1NTE87xcLi8sLPzrr7+MRqPT6cRxXKlUSiQShmESEhIePXqk1+uvXr06ZMiQYDBoMBiAffv2xcXFVVdXZ2dn+/3+wsLCDRs21NbWvn379vjx47169VKpVNnZ2S0tLTRNjx49+vbt22fPni0oKOjateuECRMuXLgwbNgwgiAcDgeKosnJyRiG8TwPQZDFYhk+fDgIglKpFIZhj8fz8uVLrVb72Wef8Tzf3Nys1+vVanVTU5PFYgkEAjzPm0wmmqZbW1tnz57NsuyTJ0/C4XAgEIBhuEePHrdv30YQpG3btiaTqaKiorKyUiaTeb1eo9EYDoeVSiWGYSAI2u12GIaVSmUkEjEYDCRJer3eaDTK87woilKp1Gw2jxo16ubNm16vt6qq6unTp7W1tRRF4Tj+8OHDjIyMrKwsGIYvXLiQlZW1cuXKuLg4h8MhCEI0Gu3YsaPFYvn0009///33SCRC07QoigiCxMXFVVRUJCcnnzp1qqSkpH///vPmzXv16pXFYoEgCIZhv99/79693r17i6IYDAaBy5cvoyi6cePG7OzskSNHOp3OP//8k2GYI0eOtG/ffuHChXK5vLy8/OrVq5mZmbNmzTp+/PjSpUufPXvWtm1bh8MBQRDP8xRF5efnt2vXTq1WwzDMcRwMw+/evfvjjz9WrFjBcdyFCxdAEAyFQizL4jgOw3A4HB45cuThw4cBAAgEAtnZ2Q0NDU6nE4bhlJSU3NxcmUy2devWWbNmrVmzJjY2lqIol8v1yy+/XL58GcMwl8vl9XpjY2Obm5uXLl164sQJiqJsNlvbtm1tNpvdbmdZtmvXrj6fj6IogiBEUQQAIBwOR6PRmJgYv9//008/bdiwIRQKPXr0aM+ePR06dDAYDB6Px+/3S6VS+KPPP/+cJEkMw/Ly8m7evKlSqd6/f//ll19OmDBBp9MdP368T58+x48fT0xM5DiupaVFqVSuWrWKYZjKysr27dvL5fJJkyatXbt2xYoVKSkpd+7c+eWXX/79918cxwGv17t58+aTJ0+iKNqtW7fGxsaKiopIJDJgwIChQ4dardaEhAQYhidOnDh48OA5c+YsXLgwEAgolcr58+d7PB69Xv/y5cutW7fqdLqkpCS73Q7DMMuyPM/DMLxkyZLExESHwyGRSBYsWLBr1y6GYSiKmjBhws8//9yuXTsAAHAcBwAAQRCv1yuKIo7jqampr169UiqVHo9nzpw5e/fuHTNmzLlz5/R6vUwm8/v9VqtVq9WOHDny2rVrSqXy/fv3crk8NjbW7/dLpVIIgqxWq9lsViqVfr//m2++iY2NPXz4sNvtbm1tFUVx2bJlR48epWnaYrG8fPmyU6dOu3fvfvPmjUKhEASBoqj3799369ZNo9GgKFpeXi6K4ubNm3v37t2tW7dBgwb17NlTFEW/38/zfGxsLEEQwWBwyZIlY8eOzc7OHjFiRNu2bevr6ydOnFhbW9uzZ8/OnTv36tWrpqbG5XLckoWhAAAgAElEQVQNGTJkyZIlmZmZwMmTJ1++fLl69WoMwzp06LBkyZJIJLJly5ZFixaZzeaOHTsWFRXFx8f369dv3LhxEydOHDFiRKdOnRobG1tbWx8/fjxw4MClS5dWVVUVFxenp6drNBqWZb1er9Fo1Ol0v/zyS05Ozv3793v37n379u1IJOL3+xEE+e6j3r17u1yuKVOm/Pbbb8nJyTAMMwwjk8mCwaDVah0+fPiLFy+0Wi0Igl9//fU///wzZsyYc+fO8TwPgqBcLmdZdvDgwSdPnpTJZAAANDQ0KBQKjuPUavWkSZOKi4tHjx6tVqvXrFmj1+sFQdDpdCRJ1tfX//TTT+fOncNx3O/3QxA0cODAiRMn7tix47PPPsNxHIIgFEVJkrx06VKbNm26du06derUKVOmbN26dfv27atXr8ZxPBKJIAiCYRjP84FAYMGCBdOmTUtPT//mm2/27Nnz7t27qVOnut3uEydO9OjRo2PHjh6Ph6ZpgiBcLpfdbmdZFjhx4kRMTExtbe3atWuzsrL27Nlz6NChhw8fXr169e7du4MGDbp69eqrV68EQdi+fbvJZKqqqtJqtf3792/Xrh1BEJFIRPXRvXv3iouLO3Xq1KVLlxMnTni9XqVSCUHQiRMn7ty509TUlJWVVVdXh2EYiqI6ne6///6Li4uLRCLJycm1tbVqtbqpqaldu3a1tbVqtXrs2LEgCJaWlrrd7kWLFgmCcOrUKY7jEAQRRTEQCIAgKJFIOI7zeDxxcXESicTv9xME0draCsMwgiAwDFMUZTAYCIJobGzEcZxlWYlEgmFYMBjMzMzU6XQOhyMvL08QhM6dO3/48CE1NdVsNldUVIAgGI1GURT1+/0pKSk///wziqIIgrx58yY7Ozs3N/f+/fsulwuGYZfLNXfu3J07d4Ig2K9fv7KystmzZysUisbGxj179hAE0a5dO0EQmpqaYmJiYBj2eDwTJ0789ddfgbNnz/r9fqlUWlFREYlEdu3aNXPmzLKysvr6+uPHj4dCIQiCYBi22Wzr1q3r37//vXv3evbsOW7cOIlEIgiCUqm02+2PHz++e/fus2fPHj169O7du9OnT0MQZLPZBEEIBAK1tbV//fVXz549XS4Xx3FDhgx58uTJy5cvjUaj2Wxubm5WqVTBYFCpVCoUCp/P53Q6+/TpU1dXh6JoOBxGEOTLL7/ctWsXiqIKhQKGYbVabbPZpFKpTqcjSdLn82m1WoqiZDKZyWTy+/0EQdA03bZt22PHjlksllAoxLKsUqnU6XSVlZUIgvz222+HDh2SSqW1tbVnzpyBIKi2thbDMI7jCIJwuVwAACAIAgDA0KFDu3XrJggCz/OFhYUcx23cuHHZsmWnT59uamoCQZAkyZiYGIZhEATJzMwsLy8HACAYDD579qy2tvaLL77IzMzMz8/fs2cPhmEZGRk0TTc1NQGPHz+22+3BYFAqlTY0NLRt21ar1e7cuVOpVA4bNsxqtZpMpmg02traGhMTQ1FUVVXVX3/9tX//foPB4PV6CYKAYXjgwIEulyspKenHH3+cN2/e8ePHT506VVZWlpmZCUHQN998M3DgQIqimpubw+GwxWLhOG7JkiWFhYXdunXzeDwcxxEEIQiCXC7v3r17WVkZQRAcx8XFxXk8nvnz579580YQhOvXrxMEQVEUx3EFBQX79u0TRTEajYbDYYlEYjAYMAzr2rXrtWvXUBQlSVKv1+fn59+5c8dmsyEIwvN8OBx2OBzr16/ft2+fTqdDEKS5udlkMoVCoe3bt1utVhzHnzx50qtXL4/HY7fbU1JSpk+fbrFYBEHo1avXs2fPGhsbRVFUq9Usy6pUKrvdHhMT09zcrFKpaJomCMJoNI4dO3bjxo05OTlVVVU0TQeDwRs3bphMpv79+1MUVVhYePr0aeDgwYMAAJjNZhzHA4GAIAgURYmiOHbs2HPnztlsttTUVLfbHY1GQ6EQjuM+n8/hcCxZsuTIkSPTp08vKSmx2+0cxxEEYTAYOI6z2WwQBJWUlAQCAQRBgsFga2vr8uXLYRjOycl59uxZdnb22LFji4uL6+vrExIS8vPzT58+LQiC3+8nCGLFihXbtm3zeDyTJk3SarVHjx79/PPP9+3bF41GIQiKiYkZOnTow4cPW1paZDJZQ0NDamqq2+1OTk6+d+9ecnIyz/MoijqdztjYWL1e7/P5/H5/NBrVaDQgCMrlcrfb7fV6ExISJBIJCIJNTU1yuTw9Pf33338/c+ZM+/btRVHs27fvgAEDqqqqkpKSVq1atXr1agiCJBJJS0tLJBL54Ycfdu/ezfP8+vXr58+fr9FobDYbjuMxMTGtra0YhqWmpvp8Pp1O5/F4FArFo0ePlixZsmPHjmXLlh09ehSCILVaDezfvz8mJgaCILlcPmDAgIMHD4qi+Omnnz579qypqalLly6CIPTp02fPnj3ffffdzp079Xp9amoqSZK5ubkQBF24cMHtdkej0VmzZm3dunXKlClr1qzp3LlzVlbW559/DsOw2+2urq4WRfHmzZssy+I43tLSotFoYmNj6+vrIQgKBAITJky4cuWKWq12OBwgCLrdbovFYrVaV6xYsXXr1mg0Koqi1+uNiYmx2WwEQQQCgfbt21utVhRFAQAYOnTouXPn7t+/n5eX53K5RFGUSCSBQADHcZVKxXHc119/ffbs2YSEhOrqagRBjEYjRVEgCHo8nsGDB+/atcvtdt+6dYthmJiYGIqiFApFRUXFnj17EhMT27Vrd+TIERzH3W43QRCBQABF0RkzZuzfv9/pdKIoKorijz/+uHHjRp1OZzQag8Gg2+1Wq9UxMTE4jpMk2djYqNVq/X4/BEFZWVkMw3g8HmDXrl0GgyEajfp8vrS0NJ/PxzDM3LlzN27cmJSUFAwGtVptU1MTSZLjx493Op09e/Y8efKky+Wy2WxqtRpFUZPJBMPwwIEDA4HAkSNHbDabVCo9cOBAIBCgaVqlUikUitevX5eWliYkJITDYafTmZKS4vP5ZDJZS0tLMBhMSkqqrq7GMMxisdA0rdPp3r9/P2XKlNu3b3s8ntraWrPZbDAYAoEAz/PSj2iahiAIhmEQBDmOU6lUNpsNx3FRFEEQjI2NHTNmzPbt251OJwAAWq12xIgRly5dqqioSE1NjY+PdzqdLpcLQRCKoliWvXTpksvlgiCIoiiapmNjY1+9enXw4EGtViuVSj0eTyAQmDBhQklJiUwmgyCIJEmJRBIKhUaNGnXhwoXW1la9Xm8ymTiOs9vtcXFxUqkUAIBp06YdOHBg2rRpx44dGzJkCIIge/fuNZlMBQUFwMWLF3v27Pn06VO73Y4gCIqiLMtKJJIJEybs2bNH9pHP55NKpRaLBYZhhmEoigIAgOO4tLQ060cymczv9+v1eoIgWlpaZs+e/cUXX9TW1ioUCrlcDkHQxIkTI5FIfn7+xYsXURTVarXhcHjw4MFKpbK4uNjr9cbExLS0tCQkJFAUJf9Ip9Pdv39frVaPGzfu7NmzCILAMCwIgkwmc7vdGo0GgqC3b99aLJaZM2du2LABQRCZTIbjeN++ff/555/4+HgURevq6lJTUx0Oh81my8zMrK6uTkxMbGlp6dixI0mSX3/99fPnzysqKg4dOhQOh1mWNRgM2dnZarW6c+fOoY+kUikMwx6PJxwOp6enezwet9sdCoVycnIwDHO73YsXL16wYMGiRYtWr16t0+lkMllLS0u3bt3++++/nJwcv99vNptDoRBBEG63WyqV+nw+k8kE/PcRTdOFhYX379+3fjR37lyCIGbNmvX5558rlUqGYWQyGcMw4XAYhmGapiORCEEQIAiazWaKoux2uyiKgiCEw2GWZW/cuKHX6588eQJBkEQioShKLpcTBHH27Nn8/Py4uLgRI0ZMnjz5w4cPN2/elEqlra2t33///YMHD54/f45hmEqlamlpSU9PJ0mSIAgAAHw+n9Fo5DiOYZgJEybs379frVbjOG6z2XiexzBs5MiR8fHxlZWVL168sFqtRqMRgiCr1apUKkmSDIfDarW6vLx81apV9+/fVyqVLpcLgqCSkpLS0tK1a9eWlJTAMAxBUOfOnceMGdOtWzeapsvLy+vq6nw+n9PpNJvNGIbRND1t2rStW7daLJZQKBSJREiSXLZs2YYNG+bMmXPw4EGPx6NWqzmOk0gkOI5zHJecnNzS0rJo0aKioiK32w1B0LJly96/fw/s37/faDRmZ2dv2rSJIIiMjIypU6feu3evtbV1/PjxNTU1b9++dbvdqampLS0tMpmsQ4cOdXV1kUiE47i7d+9qNJqMjAylUunz+UAQZBgmLy/P6/WaTKbCwsKvv/76ypUrL168wHE8Pj6+rq5OqVR+9tlnzc3NarW6W7duP/zww/Hjx+Pj4zMyMlQq1datW2fNmsXz/F9//bVq1arLly/7/f7a2lqLxaLRaCiKGj16dDAYfPz4sUQi8X2EoiiCIBMmTNi1a1c0GmUYhmVZr9ebmJg4Z86c8+fPMwwDQZDdbo+LiwuFQl988cX169fD4fDMmTNTUlK8Xq/BYBAE4eTJk/n5+Tqdbv78+TExMUOGDKFp+siRI3V1dTRNEwTh9/uVSuXGjRvr6+u9Xu+FCxc8Ho/b7RYEQafTEQQRiUQIgvB4PN99992GDRvMZjPHcdFoNDExMRKJYBg2evTov//+22Aw9OvXD1i2bNmcOXMuXbqk0WhSUlJomg4EAmlpaU1NTbm5uZcuXSJJUhCE1tbWgoKCsrIyjUbD87xSqWxoaGBZ9ueff7bb7ZcuXcrNzb1w4YLL5QJBUKvV1tfXV1dXz58//+nTp3/88YdarQ6Hw1qtNjY2VqfTeb3ejIyMzZs3b9u2jWGYrKwskiSrq6shCEpISPB6vTzPG41GjuPGjBlz8uRJr9dbUFCwfft2DMNkMpkoiuPHjz99+jTDMCiKulwuqVQajUYlEgn20aJFi/766y+KoqLR6KBBgzZt2mQ2mxUKBUEQcrnc5XJhGPbgwYOamprDhw936dIFBEGGYSKRiFQqXbx4McMwXbp0CQaD33777bJly/x+P47jEyZMuHTpUktLCwiCFEX5/f5oNPrff/+Vl5fPnz+fJEmz2SyXy0mS1Ol0MAw7nU4IghQKRUpKyvv37+Pj4xUKRXV1NUmSarUauHTpklwuz83N3blzJ0mScrk8FAoZDAaKohiGMRgMKIpOnTqVpunt27fPmDHjzJkzLpdLKpVOnDgxLy+voqJi0qRJq1evPnjwIAiC27Ztmz59ekJCgtVqBQAgMTHR7/fn5eWtXLnSbDYbDAaFQvHw4cOqqqo2bdpkZGS4XK60tDQEQbiPEATp1q1baWnp7NmzS0pKBEHQ6XRSqbSpqQnDsMTExLdv37Ism5GRwXFcIBBgWZam6fT09IaGhkWLFv31118ajUYikYii6Pf7R40a9ebNm9zc3E2bNmVkZNA07Xa7U1NTGxsbcRw/c+YMTdN5eXkPHjxgWTY9PX39+vXLly/fsWPH77//rtFo8vLydu3aBYIghmFOpzMlJYXjOLvdjuP4/Pnz09PTs7Kyzp4927Zt2169esEwnJ6e/vPPP//vf/9DUdTr9er1eplMxjAMiqIAABiNRhiGq6urNRoNy7JAcXGxKIpxcXFWqxVFUYZhNBpNbW1tenq6wWCorKzEcVyr1QqC0Ldv3xMnTnz55ZfPnj0LhUKjR4/u3r270+kURTE3N3fgwIEkSX7//fc3btywWq0URalUKoZhMAyTSCRarRbDsMbGxpqamuTk5JiYGJvNVl9fX1hYWFpaqlAoQqFQz5493759y3GcQqFoamryer1GoxEEQZ7nlUqlx+PRaDQJCQmDBw8+evSo3++HIMhut5tMpoSEBEEQbDabKIoAAAwYMKCxsbG+vt7v9weDQZlMZjAYOI6TSCTDhg27fPmy3W6XyWS1tbUkSQ4ePPjLL788e/as3W7/9ttvPR7PmzdvLl269NVXXw0YMODnn3+WyWQ6nc7n8wWDQYVCoVarp06d2rFjR5lM9vbt2+TkZBzHQRB88eLF3LlzP/nkE5ZlSZKMRCKdOnWqqamBYRjDsLi4uNbWVrVaPXbs2OLiYoqigHPnzslkMolE0qVLlw8fPlit1r59+z59+lQURRAEX79+HQgEOnTooFKpWltb4+PjvV5vTEyMKIqff/55v379WJYNBAImkyk7Ozs/P9/pdMIw7PP5IpGITCaTy+UAAHzxxRdFRUVGozErK6tNmzZXrlx58+ZNTEzMJ598UlFRkZCQ4Ha7HQ4HQRAAADgcjmg0CoKgQqGQy+UURc2YMWPHjh1qtbqwsLCkpMTj8RiNRpfLpVKpJBKJy+XieT4nJ6e2thaGYYlEAsNwU1OTWq3WarUqlcrr9fp8PhzH27ZtGwgEHA4HTdN6vV6n09XW1mZmZkaj0ZEjR27durWwsPDAgQORSESr1U6cOHHjxo3hcNjtdkMQJJPJFAqF2+3++eef09PTNRoNTdMURcEwrNFobDZbz549jx49um3bNplMNmrUqKysrN9//33mzJlbt27VaDQWi4Xn+fr6eq1WGwwGBUEAjh49Onny5LNnz0YikYyMDK1Wu27dus8//3zGjBn//POP1+u9ceMGCIJ///33rl27NBrNmDFjHj9+LH50+fLlvXv3ZmZmUhQFguC7d++WLVu2cePGEydOOJ3OcDj89OnT169fkySp0WhIkszPz+/Tp49UKm1tbTUYDBKJhKZpuVzu8/kcDkdTU1NycnIkEkFR1Ov1Ll++fPfu3Uaj0ePxLFy4UC6X//TTT4mJiX6/XxAEgiB0Ot3IkSN37Ngxffr0xYsXx8XFud3ulJSUcDjcrl07p9OZm5t7+PDh9PT08vJyGIYNBsP58+ffvHkzcuRIrVYbDAZjY2NpmtZoNLGxsenp6ffu3ZNIJN27d5dKpYcOHZo2bdratWthGO7Vq1dDQ4MoigzDvH379v79+yAIYhgmlUqDwaBMJrPb7V9//XUkEklLS7NYLAiCeDwehmG8Xm96ejoMwwaDAYKgysrK9PT0ESNGbNiwAbh586bX6zUajSNHjly3bp1cLo9EIomJidRHoVDozZs3crn8/v37X331Ve/evevr6zt16tTY2KjX6ysqKoYPH96lSxeTycSybDgcZlm2R48eu3btmjRpks1m83q9IAg+e/asffv2CIIolcrGxsaDBw/6/X4cx1mWVSqVBEHU1NQ8f/68Q4cODMOAIOhyuZKSkliWFT/y+Xypqak+n69nz54VFRVGo9Fms5nN5paWFoqiUBTNzMykaRoEQafTiaKoxWJ58OBBcnKyVCr1+/2CIMTGxpIkOXTo0Js3b9bV1SkUCpfLFR8fj6Ioy7InT55s3759RkYGz/MymWzevHlLly5VqVQIgrx//14mk2EY1tLSotFoMAyzWq3Hjh17+PBhly5dFB9Fo9H//vtv3Lhx4XC4V69eKIrm5+evW7cuLS3NbrfHxsYSBJGamtqnT59Lly4JglBXV4cgCHDr1q1AIHDqo23btmk0mnA4DMPw2LFjr1+/7nQ6zWbzoUOH9u7dO2/evPT0dIVCkZCQwDCM3W4HQbCqquru3bs+n4/neQRBUBSNRCKBQAAAgISEBJ/P53K5kpOTPR4PiqJSqbSqquro0aM8zzMMgyCIyWR68eJFa2urUqksLCxMTExcvXq1VqsVRXHUqFEHDhzIz88/d+4ciqLZ2dkOhyMQCEyaNOny5ctDhgy5cuWK0+mUSqUqlcrhcFAUtWzZMqfT+fbt24EDB27cuFEmk/n9frPZDIJgJBIhP5LL5R6PB0GQxMTEx48fO53OS5cu5eXlffbZZwRBVFZWRqPRmJgYAACmTZv2xx9/SCQSuVwukUhYlqVpevbs2UuXLi0tLRUEweVycRzXuXPnHj16bNiwYfv27SaTye/363Q6lUqF43iHDh3S0tL+/fdfEAR9Pl9cXBxFUQzDoCgKXLp0qaamZvv27fPmzVu4cOHFixcpimpsbExLSyNJUqVSjR8/fs+ePTdu3CgvL3e73RAEjRkzJj09HcdxhmGCwaDT6Vy6dGmnTp3C4XBcXJzb7UYQhKZpmUzm9/sRBMEw7Pz580OHDtXpdAAAHDlyZOXKlbm5uT6fTxTFxsZGAAAgCKIoKjY2liTJOXPm3Lx5s7a2VqvV6vV6m80WjUalUqlcLhdFcfr06Zs3byYIAsfx+vr66dOn379/n6ZpjuNkMhlJkqIoBgKBxMREr9c7evToixcvYhgWCoUAACBJsrGxccWKFf/884/D4ViwYEGfPn0oioJhuH379iNHjmxqaoqPj/d6vRiGffXVV0qlctOmTQkJCdXV1Rs2bNi9e7fT6YRh+IcffkhLS6NpOiYmRq/Xy+Xy4uLi5cuXJyQkAACwfPnyDx8+7Ny5MxqNajSadevWLV++nGGY5cuXr169Wi6XjxkzBti3bx/P8xzHtW3bFsMwEAR5nrfb7YmJiU6n0+FwCIKAomgkEhkyZEhiYqLRaBw0aNA333zj8XjUarVEImloaKirq7tz5w4EQYIgQBDEcdz58+fz8vIkEgkAABKJRKVS+Xy+UCgkkUi0Wm1OTk5ubq5UKkUQZOLEiRs2bJg/f/7vv/9uMplAEHS5XFqt9t27dzNmzHjz5o3f70c+mjdv3vLly2UyGY7jJEmq1epoNKpUKmUyGcuyEAQ9efIkLi7u9evXbdu2JQhCoVAolcpgMDhs2LCbN29+/fXX27dvb9OmzZs3b+7cueP3+ydNmjR58uT09PRIJCKK4oQJE5YtW/bs2bNevXqVlpYKghAKhRAEMZlMNTU1LMsiCCKRSARBUKvVMAxLJBK9Xi8IwldfffXnn3/qdDqWZX/55ZelS5cajUaSJKVSKcdxnf6/JviAauJwGACeu+Ryl8tlbwgQlihSBUWpW3Gg4kKr1GoRwYWr1lVb/Vdb62pVtNpWHKi4EAVRpGoV66h7IAgim0CA7HXJJbnkct97vvf9fklJbW1tAAB4PJ6wsDDiE6CqqmrMmDFbtmz5448/7t+/r9PpEAQZM2bMy5cvLRaLUCiEYdjr9Y4ePbquru7Jkyd//PFHUlLSjBkzEAQBQRAAgGAwCEHQhQsXqqurWSxWIBCAIIiiKAiCUBS12WzV1dWJiYkWiyUkJISiqIiIiLt37xqNRi6Xe/z48ZCQkLa2Npqmc3Nz//3338bGRh6Px2azMQxjf5KRkXH8+PG5c+fW1NS0tLSQJOl0OqOiotasWXP+/PmsrKzTp0+TJPn69evLly/HxMSkpKRs3br1+vXroaGhra2tRUVF48ePt9lsSqVy9erVV69enTJlSl1dXWNj47x58/Lz88+dOwcAAEmSBEF8//33SqUSAACz2SwSiebOnXvmzBmpVFpXV6dWq41Go0QicblcwWCQoigEQXAcZ7FYWVlZf/zxR2hoKI/Hs1qtbrd71apVx48f37hx49mzZxcuXHj+/Hmn0zlt2rTKykq/3x8dHQ2UlpYOHz788OHDgUBg1qxZDoeDz+d3d3fPmDEjPj4+Ly+vT58+PB5PIpFERkZ+++23L1++tFgser3+7NmzHA4HBEG32y0WixsbG0tLS30+H5PJNBqNHA7H7/fDMOzxeLRa7YgRIywWS0NDw7Bhw54/f3727FkQBNPS0oqLixkMBgAAS5YsuXz58qZNm7777ruYmJhgMDh//vyzZ88SBMHn891ut9VqRVGUy+UaDIatW7f6/f5Lly5JpdLa2lqVSuXxeG7cuOHz+bRabUJCQt++fTUazTfffDNu3Li3b99GRESsXLnS4/H4/X6xWCwUCvV6PZ/P1+v1tbW1t2/flsvlRqPRYDBMmjQpISFBIpEsWrSorKwMw7CGhgYOhyOTyQwGA4vFoihqxYoVJSUlgUCAwWDAMGw2mwEAEIvFHo+HwWAAAICi6Lt37+Lj4xkMBvpJZ2fniBEjnj59GhoaSlEUiqLAd999FxERkZCQ8PjxY4qikpKSmpub1Wo1RVGBQEAikbS2tn7++eetra0LFiyYP38+juMzZszIz8+PiIiYMWNGVFRUSEjImzdv1Gr1vXv33rx54/V6JRIJAAAej8dkMrndbpqmA4EAAABisXjYsGFxcXEYhgkEApfLxePx7t+/n5+fv2PHDrlcjiBIbm7url274uLiGAyGUqmcN2/e5s2bU1JS0tPT8/PzV61a1dbWduTIkbCwMJvNplarURQNBoMMBkMsFvt8vhMnTuTk5PT29i5ZssRutw8aNIjL5VqtVqFQOH78+OTkZIIgIAhasmTJsWPHhEJhdXX1lStXRCLRo0ePhg0bZjQak5OT16xZQxAERVHZ2dlXrlzp7e01mUyBQGDlypUlJSUIgnR2dspkshUrVhw4cEAikbhcro0bN/7www/9+vXr6OgQCoUQBC1atOjOnTt+v7+3t3fp0qXHjx+HYZimaYfDgaIo8Pnnn4eEhKSnpy9ZsuTFixcfP378+++/MzIypkyZUlxcjKKo3+/n8XjBYJDBYNA0DcMwjuOVlZUTJ04cPXr006dPw8PD09PTZTLZ/v37p06dumXLFgAAjEZjZWVlamoqTdNms1kqld6+ffvcuXMIghiNRq/Xy2Qyt27diiDIN998ExkZ6XK5Fi9efP/+fa1Wu2jRoiNHjsTHx0+fPj0YDJ4+fdrhcIAgKJfLfT6f3+9fsmTJypUrCwsLf/nll19//fXUqVM+n4+iqA8fPnR1dc2aNcvlcnm93urq6osXL4aFhREE4fV6WSyW0Whcu3bt3r17f/zxx7CwMI/Hg6Lov//+++LFi0ePHo0cOdLn85Ek+dNPPykUio6Ojujo6ClTphQUFPB4POiTjx8/ajSaiRMnSqVSJpMpEAh27Njh9/thGHY6nVu2bPnlk8OHD+M1ue0AACAASURBVA8dOhTHcZvNNnDgwLt37woEgkAgIBAIMjMz9+7dC7S3t4tEol27dk2aNMlqtTocDp1O53A4ZsyYodPpcnNzS0pKGAyG2WwePnx4e3s7DMN6vZ7H4xmNxrt37yYlJanVarFYvGXLlu3btysUCj6fX1NTIxaLnU4nhmE9PT1hYWHTpk17/Pjx8OHDy8vLQRCUSqW1tbUwDBsMhpCQELfbLRAIcnNzDx8+DACARCLhcDgAAJSUlDgcjtDQUJvNFh4e7vf79+/ff/r06fv37zc0NIwZM2bkyJFcLre7uxuCIJvNdvjw4fnz56elpdXU1AwcOPDKlSs1NTVWqxWGYRRFvV6vy+XSaDSDBw/m8Xg+n2/16tW1tbV2u/1///sfk8mEIMhsNvfp02fevHkqlYrFYjkcDrvdjmFYQkLCmzdvVq9efeDAAYIgnE7njz/+WFhYaDQaAQCQSqUURZlMJhaLJZfLMzIy/v33X7fbzWazYRjm8Xg9PT0YhjkcjvDwcIIgmpubgWPHjm3YsKG3t/fChQsMBiMjI6O+vp7D4bS3twuFQqfTCYIgh8NxuVwikcjlcrHZbBAEx4wZ07dvXxAEBw4cuGPHjtbWVhzHxWIxBEFjxoz5559/wsLCenp6SJKkP/n666/v3r2r1WoDgcDq1auvXLlSX1+/fv16Ho9XXFycnZ199OjR3NxcgiAuXLgQHR3d29t77xOKorRabUpKilwu93q9Pp+vf//+Dx48ePny5V9//eV2u/v27Qt8AsOwyWSiKCoqKkqj0bx+/bqjo2Pbtm0sFsvlcqWkpMAwHAgEaJo2GAzTp09PS0trbm6OjIz0+/3t7e0XL15sampSKpUIgmRmZsbHx4MgiOP4gAEDrFarSqWyf9La2ophmE6nu3DhQlZWFgzDsbGx1dXVPB5v8eLFt27dksvlNE03NTUxmcyYmBiHwzF79uyioiI2my2Tydxut/0T4KuvvtJqtUwmc/HixQiC+P3+2NjYd+/erVq1SqfT1dfXjx8/vri4WCwWEwThdrtFIhGKolqtlsvlPnnypLq6et++fQ0NDRUVFXPmzBGLxZMmTaqoqFi+fPmBAwd0Ol3fvn1tNhtFUXl5eWVlZenp6Y8fP9ZqtcAnq1at2r17d58+fRwOh8vlam9vHzp06Pz584uKil6+fHn9+nUMwywWS1dXV1JS0t27dwcNGsRkMuVy+cGDBy9cuEDT9GeffZaTk+NwOO7du8dkMvV6/YMHDxYvXsxgMPR6fU5OzqFDhywWy+7duwcMGAAAgMvlQlEUw7D6+vpgMNje3i6XyysqKj5+/HjgwIGPHz8mJiYGAgGxWDxx4sRJkybNmDGjsLBw4cKFly5d8vv9YWFh3d3dIAjiOO7z+XAc//bbbysrKx0OR25ubn19vUKhePjwIQzDfr8fgiC/30/TdGdnJ4ZhCILgOL548eKTJ08C33zzjd1uv3///tq1a2NiYmbPnv3s2bPBgwez2exff/11yJAhDoeDxWJBENTQ0CCVSteuXVteXo5hWFtb29WrVyUSSU5OzpNPSJIsLS29efMml8s1mUx+v7+7uzs0NBQAAIlEYrfbc3JyDh48qFQqnU5nV1eXzWYLCQnZtm3b3r17VSqV2WyOjIz0eDwcDufdu3fPnz+vrq6WSCQQBFEU5fF4gsGgVCpNTk4eN27cyZMnQRA8c+YMn8+/d++ezWabOnVqMBj84osvHj58uGPHDo1GAwCA1Wrl8/koihYXF+t0OhzHBQKB2WwGAEAoFE6aNCk2NvbWrVuDBw8OCwurra0tKiri8XgkSfp8vvb29itXriAIwuPxzGYzi8XCMEwul48ePbqysrKlpSU8PJyiKJPJRJLkpk2bTp06BYKg1WpFP2EymTabTaPRdHZ2MhgMHMezsrIKCwsHDRrU1NQEHD58ODIysrGxsX///iRJ6nS6xMTE27dvnz17NiIiIjk5ed26dUePHj1+/PiZM2cyMjIOHjwoEolUKpXH4+Fyuenp6Xl5eQ8ePOjTp8+oUaNaWlry8/Nv3769cOHCixcvWiwWCIJIkpRIJCRJCgQCvV4fCAS2bNmSl5e3ffv23bt3R0REeL1ej8cTGhqamZl58OBBBoNRUFDg9/vr6uoGDBjAZrNJkgRBkCRJqVQqEonevXs3ffr06urqu3fvlpSUcLncb7/9VqvVZmZmtra2jhkzJjs7myAIiqJ0Op3FYuF88vXXX0dFRXG5XBAEGQxGMBjEcdzn8w0aNCglJYXL5a5fvz4/P//o0aMcDgeCIL/fn5qampiYuHr1arPZXFRUBMPw2rVrr1+/PmXKlAsXLpAkiaKoWCy2Wq0Iguh0umXLlj1//txsNk+fPn3fvn3/+9//Dh06JJVKOzo64uLiZs2adejQIRAEjUYjcP369WAwCEHQv//+W19f/+HDh2fPnn333XcdHR0MBsNoNN64cWPmzJlLly6NjIwUCASXL18ePXq0Uql0uVwMBuPrr78OBoPr1q1LSko6fvx4d3d3Tk7Ohg0bTpw4QZKkxWLZtWuXSCQaNWpUdna22+2GYdjtdqtUqs7Ozi+//PLMmTMEQURFRbW0tPB4PAAAampqurq6amtruZ88ffo0Li7O5/PBMKxWqwcPHiyXy9euXfvDDz/4fD6CIEaOHLlmzZqSkpJNmza53W4Yhru6ukAQtFgsT548oShqyJAhQqHw4MGDCQkJFRUVVVVVdXV1Go0GwzCz2dzY2Lhw4cLo6OiIiIhjx46dOXNmzJgxERERoaGhNTU14eHh48aNGz58OE3TCoWio6NDLpdPnz798uXLEolk1KhRNE2Xl5fDMGyxWCQSCZ/Pv3r1qkQiGThwIARBPp8vLS3tyZMn3d3deXl5f/31V2ho6Pv37w8ePAgUFxfDMDx79uwJEyYwGAyr1crhcIYNG1ZQUBAfHy8SiRQKxZMnT4YNG5adnT1y5MibN2/abDYURTEMI0ly5MiRL1++FAqFV69e3bJlS1paWldXl1KpZLFYJEkOGDCgpKQkMTGRpumsrKz+/fv7fD4URREEqampcTgc4eHhJEnOmTPn1q1bAACw2ez//vuvpaVFp9MxmczXr1+vWrVq//79qampFRUVOI6XlJTExMR8/Pixo6MjISEhKiqKw+FYLBapVOp2uzs6OsrLyysrK2fNmpWYmJiSkuJyuUAQxDCsu7s7JCQEhuGhQ4cOGjRIKBR6vV4QBGEYbmlpmTVrVlFRUUVFRTAYZDAYFy9efPz4cUhIiNlslsvlubm54eHher2+b9++48aNoyhq5syZpaWl+/btc7lcAwcO9Hg8q1evnjJlyrRp0/bu3YsgSENDQ2lpaW9vbzAYBEGQoqhAIBAaGmq3281m86pVq4CYmJj29vaKigqbzXbz5k2n0/n06VM2my0SiUaNGpWYmMhkMufNm7ds2bKlS5eOHTv21q1bGIZVVVWlpqa6XC4Yhu12+/v374uLi7lcrs/nEwqFDoeDxWL5fL7U1NTJkyd/8803NE2r1ers7GyFQjFt2rQHDx7U19e73e5hw4bV1taKxWIcx9lstl6vDwkJefXqVVNTk1QqjYyMVCgUEAR5vV6Px6NUKlEUbWtrI0mSwWD873//e/LkiclkQhDEaDT269dvxIgRhw8fFovFTqeTzWZLJBIcx0NCQlwuF4qiPp+vuro6MTHx8uXLx44dGzt2bE1NzbBhwzwej9frDQ0NFQqFsbGxw4cPdzqdu3fvJghCp9NpNJqxY8cuXLjQarUGg8G5c+du3rz59OnTHA5HJBIFg0GFQqHX61taWlJTU/fu3fvs2TMOh7N06dJjx46tXLny1KlTXq+Xy+VOnjy5vLw8EAiYzeZly5YBRUVFMAyPHj1aIBAcOnRo0KBB165dczqdHR0dy5Yti4qKunTpktvtXrRokcvlysjIqKqqwnG8tbVVq9Xu27fvzJkzK1euhCBoz549ISEh+fn5N27cGD9+PIvFCgaDDAaDy+WazWY+n//48ePy8nIQBGUymVardTqdgUCAzWYzmUy3263RaPx+v9VqhWHY5/PZbDafzycUCmUy2fr16/Pz8/V6vUQisdvttbW1Go1GKpWuXLny9OnTfD4/IiKis7NTqVQGg0GHw4FhWHR09OvXr1ksVkZGRkVFhdfrRVG0t7cXx3EQBAEAuHPnTktLC4Igjx8/lslkycnJz549UyqVY8eOvXbtmsfj2b59e2lpKZ/PN5vNQqFw7dq1nP+3evVqDoczcODAd+/eud1uEATr6+u/+eabYcOG9enTR6/X2+32iIgIgiDq6+sVCkUwGBSLxYFAYOzYsc+ePevp6bFarUB5ebnRaNRoNDRN9/b2nj17NiwsbNmyZfHx8du3b58wYUJVVRWPxwsNDZVIJOxPOjs7ExISXr58SZLk7t27mUymz+erqqq6detWRUVFR0dHWFgYBEE3btzgcDgjR44kSXLAgAHz5s0LBoMsFksikdhsNhRFP3z4YLFYeDye2Wzu379/MBikaXrFihUXLlxgMBg9PT39+vULBoOdnZ1MJhNBEAzDPn78GBoaqtPpRo8ebTAYfD5fdHS0xWIJBALt7e2bNm3yer2PHj2CYXjy5MllZWXBYNDpdC5atOjSpUtTpkxBEOSvv/7CMIwkybKyslevXnG5XJqmORzOq1evRo8e3dvb269fv4ULF06bNm3u3LkURXk8nri4uPj4+LCwMA6HgyCI2Wy2Wq3h4eFHjhwxmUwIgvz88898Pt9isbhcLqVSSVEUiqIul8tqtUql0rS0tKdPnxIE0dLSgqIon8+XSqXAH3/8odFokpOT79y5EwgEVq5cuXTp0ry8vKdPn+7cuZOm6aSkpDFjxkRHR0MQlJmZeenSJRzHIQjq27dvY2NjR0dHbGwsk8n0er2vX7/euXPnypUr//nnH5FI5HQ6m5ubrVZramqqyWTaunUri8UCQVClUtlsNpVK1djYaDabURT98OFDSEiIWCz2+/1RUVFqtTouLu78+fMbN278888/aZrGcXzfvn1dXV1arfbZs2fLli3Lz8/fsmXLgQMHEAThcrnZ2dm//vorDMOLFy8+c+YMi8Wy2WxqtRoEQZfL9fXXX5eVlZlMJo/Hk5eXh6LokSNH+Hz+sWPHWlpaIiIiGhsbxWIxAABNTU2JiYkWi2XBggWxsbHHjx/3eDwURXE4nM2bNzMYDJfLRX6ybt06hUIRFhaWnJw8efJkqVSq1WpRFHW5XCwWi8lkZmRknDhxIjExsbu72263R0VF9fT0LFy40Ol0lpaWAna7/dGjRx6PB8Ow9vb2jo6OvXv33r59G8fxZ8+eHT58uKysbOnSpefOnQNBEMdxhULR0tIiFotlMtmoUaMwDPv555+VSqXT6dRoNMFgMC0tLS4uDkEQNpsdDAZxHMcwjMFgbN26NRAIcLlcv99vtVqXLFlSWloaEhIyceLE/Pz8YDBoNpv379//66+/btiw4cyZM+3t7RqNZvr06QcPHty4cePJkycZDAYEQYFPMAwDAIDNZufk5Bw6dEir1SoUCrlcThCEzWZDEITH4ykUivb2do/Hk5CQ0KdPnydPnnz55ZfXr1+3Wq1MJvOXX37ZtWvXnDlzRowYEQgE6urqRo0aZTAYKIqKjIxMSUkJCQk5evSoz+dTKpUPHjwoLy/PyMgoKSlRq9WpqalXrlzRarVFRUUhISFffPGFTCYjCAJBkJSUlHv37ikUikGDBr1584YkSZvNBgAARVGhoaF6vb67u1ulUgGlpaVr1qzZt28fDMP19fUlJSVLly6NiYnZsGHD3r17R40a9ebNG4PBIJfLURQFQVCv17PZ7N5PxGLxoEGDkpOTCwsLhw8fbrPZhg8ffuXKlcbGxmvXrgEAQFGU3+8XCoWdnZ1qtRpBkM8//7y3t1ej0QwbNgzH8YULF5aVlbW3txsMBjabrdFoKIrCcZyiqNDQUBaL5fP5SJJksVgcDqe5uVksFgMA4PP5fvzxx1OnTnV1dQWDQT6fL5FIYBi22+1+v9/tdu/YsePnn3/m8Xjff//9+vXrd+/evW7dus8++0wgEDgcDqvVyuVyu7u78/Lyfv7553/++cdms6EoymazaZr+8OHDsGHDkpOTDx48OHHiRK1WC0HQ+/fvmUzmzp07ExISSJJ88+aNQqHg8/lut1sikeA4npWVRRDEnTt3VqxYcfPmTZPJFAgEVq5cWVBQQFEUiqJ8Pr+7uxtF0bdv34pEIuDWrVsOh4PP55vN5tu3b7969Wrbtm3Z2dl//vknhmE0TfN4vK6uroSEhJEjR546dQpBEKFQGAgE6uvr+/Xrh2FYT09PZ2enRqORSCQAAIAg6HK5bt++XVtbS9M0DMNWqzU0NNRisXi9XgiCVCrV999/bzab1Wp1Z2cnh8MZOHDg27dvLRYLm82eOnVqaWkpCIIAANA0jWEYm81uaWnhcDhKpdJqtfJ4PJVK5XA4SJI0GAx5eXllZWVyudxqtQYCgenTp7948cJsNvv9fhAEAQAgSTInJ2fPnj0wDGu12nHjxiUmJr548cJut3d1dcXHx799+/batWvBYJDL5RIEAUFQMBhctGjR5s2b2Wx2SEhIXV1dWlralClTLl++nJSUlJaWBkGQSCRqaGgYOXJkZ2dna2vrhAkTLBaL1WoVCAR+v/+rr766evVqe3v78uXLy8rK5s+ff/78eZ/Pt3z58hMnTkAQBPz999/jx4+/c+fOZ599duPGjcbGRqVSOXLkyH79+p07dw7DMJlM5vP5AoHAwoULjx49SpJkbm7u1atXg8HgkiVLjh8/vm3btu+++06v10+ZMqW3t5fH402ZMuXatWuHDh168eJFSkqK0WhEPiEIgslkcjicH3/88eXLl4MHD46Nja2rq4uKimpsbBQIBBRFMT6ZNWvW8+fPu7u7BwwYUFlZCQAAi8VSqVQURbHZ7I6ODpVKxeFwKIpyOBxMJpOiKIfDER4eDgAARVHjx4+vqqrKycnZv3//okWLBALBn3/+yWazTSYTRVEikUggEPT09ASDQRAEIyIiHj9+/PDhQ5vNplarXS6XwWBYsmRJREREXV1dcXFxR0fHkCFDKIryer1CofCrr74aMmRIIBD47LPPbt++vWDBAq/Xe/36daFQSNM0hmGNjY16vZ7L5YrFYofDgWEYj8dTKpVerzc+Pr5///5//vkncO7cORiGg8GgSqUyGo0sFksoFHq93i+//NJoND569Mjr9aanp587d27SpEmVlZUIgvh8PpFINH/+/GvXrrnd7pkzZy5cuDAlJUUkEm3YsOHEiRM+n0+v17948aKxsfHly5cMBmPo0KHAJw6HY9CgQevWrRs8ePDTp08HDhz45s0bHMf9fr9KpWpra4MgCIZhFosVEhJSVVVFkiRN0+vXrw8LC9uxY8eQIUM6OjocDkd0dLRYLK6rq8vMzLxz5w6fz4dhOBAIfPjwISYmhs1mz5w5s6ioKBAI5Obm/vLLL1FRUTRNYxhWU1NDkqTX61Wr1VwuF0EQAABMJlNWVlafPn1iYmJ0Ol0gEOjfv//UqVOzs7MVCoVMJlOr1TqdDkVRi8XS2tp68uRJhUKB4ziPxwsGgwKBAIbhyZMnX758uaenp7u7G4bhzZs3b9++/fjx44cOHZozZw6bzX748KHBYJBIJH369AFKSkrkcjmLxXI4HAAAeDyeqVOnwjB848YNs9kMw/CiRYsKCgoiIyObm5vlcvmCBQvMZnNVVVVDQ0NISAiKoh8/fgQA4NWrVzdv3iwsLIyJiTEYDDweTygUfvjw4cqVK1qtFkEQt9uNomggEFCr1SwW66uvvgIA4P79+1988UVvb29GRsa7d+9IkrTb7TKZrLW11WKx8Pl8u90eExPj8/koimIymStXrjSbzSUlJSRJMplMBEGmTp1aWlq6fPlynU53+fJliUQCQZDVal2xYsWRI0dAEHS5XD6fb/Dgwa9fv1ar1SRJzp07t7y83GAwBAIBuVyemZlJ0/Tp06evXLnS1dXFZDIhCBIIBM+ePSsqKrp8+fLbt2/5fD6TyWQwGCwWy2QypaWlDRgwIDQ0VCQSZWVl5efnQxDEYrFwHG9rawNB0GKxREZGWq1WPp+PIEhCQkJLS4vL5YqOjna73RKJBLhw4UJERMSkSZPOnz///v376urq5ubmjRs38ng8giAAACBJUiwWW63Wnp6etWvXlpaWMhiMvLy8ffv2Wa3W+Pj4WbNm/f777y9fvtyzZ8+///4LQdC0adNu377t9/vj4uJSUlLEYnFkZCRBEJGRkQ8fPhwwYMCHDx9Wr169d+/etLS02bNnM5lMDocTGhra0dEhEAjEYnFqauquXbvUanVWVtb58+e9Xu/SpUsPHDgQGRmJ47hOp+Pz+SAIut1uJpMZCASkUqlOp4uKitJqtZGRkT6fj8ViyeXy5uZmAACEQqHH4/F6vTExMSaTiclk9vT0SCSS2trasLAwhUJhs9mUSiVBEHv37nU4HAKBAMfx8PDwMWPGiMXiEydOkCQpFoshCCJJ0ul0wjC8ZMmSb7755vz58wRBsFgsHo9H03Rubu7PP/8skUi6u7sLCgo2bNgAQZDL5eLz+QwGw+fzRUVFGQyGiIgI4PLly2FhYVqt1u12V1ZW/vfff1lZWePHj2ez2Q8fPkxKSnK73Twer7Ky8u7duxAENTU1/fzzzykpKU1NTT6fLzc39/Tp093d3fv27Ttw4IDf7//+++8vXry4YMGC8vJyPp///PnzsrIyr9cLQVAgEHj16lVqauqtW7cWLVp069atS5cuwTDc3NwcEhJCEIRMJps6depff/1FUVRubu7du3e9Xq/H48EwTK1Wezyeuro6gUAAguDatWt/+uknt9uNIAiTyQwNDW1rawNBUK1WL1y48PfffzeZTHw+n8ViffvttwcPHgQAIDQ0lMlkZmRknD17lsvldnR0rF+/fufOnbm5ubdv30YQhMvlvnr16ty5c2Kx2O/3P3ny5ODBgxKJxOVyFRUV0TSNIAgAACwWiyRJgiB27dqFYRiTyZw3b15JSUkgEMBx/OnTp3/++WdRUZHL5QoPD+/p6cnLy/P7/TRN79u3TyAQxMTEuFwu4OrVqwaDISIioqamRiwWu91uFEURBPH7/V6vNyIiIicn57fffjt9+rRer583bx6O47t27Tp//rxGo5k4cWJBQYHb7Q4EAiEhIU1NTSiKjhgx4ubNmzNnzmxqauJyuatWrdLr9cnJyQ0NDQMGDHC5XBwOh6bpvn37ajSatLS0zs7O2NjYzs5ODocDQRCO4zNmzKiqqrJYLBRFsdlso9EYGxvrdrv9fj+O4x6PB8OwYDDY1NQEw/DFixd37969adOmVatWud1uiUTidDoBAOByuSAIajSasWPHFhQU9OnTB0XRzs5OGIYhCFKpVK2trQiC4DhuNBrZbHZcXJzZbJbL5Y8ePfr333/FYnFPT49Sqfz888/j4uKamppOnz4tFAoJglCpVDRN9/b2zps3Lycnx2639/T0MJlMgUBgNBqtViuPxyMIAoKg8PDwtrY2v9/vdru3bduWn58vl8tnzJhRUVEBbN++vbKyctOmTXK5/M2bN4cOHfrtt99IkuTz+QaDQSqVymQyq9Wan5/f09Oj0WjEYrFIJFKpVGFhYRKJxGw2W61WJpOpVqtJkoQgyOVyGY1GBoMxYsQIkiS7urquXLlCEASO44FAQCQSAQBw7969/v37i0QioVAYFRU1fPhwNpudm5t76NAhgiB4PJ5IJLJarQKBwO/3kyQJw7DL5dq+fXtjY+OtW7d6enq4XG5XVxdJkvn5+cuWLTt8+PCePXtEItGmTZtomv7uu+9OnjyZmZkZERGxbNmyvXv3Go3GYcOGWa1WtVptNpuZTOaSJUs4HM7u3btZLFZ9fX10dPTy5cvDwsKKioouXrxYW1sLAEAwGMQwbNSoUQMHDnzy5EllZSVFUQKBoKmpKSkpiaKo9PT0pKQkiqIQBGlvbx84cGB7e3sgEEBRtKurC4ZhDMNwHGcwGBs2bCgtLcUwDATBrq4uoLu7++XLlyRJejwetVpdV1fHYrHWrl175swZr9eLYZhSqXzx4sV///33/v17LpeLIMhnn30WDAajo6MVCgWbzeZwOP5PRCKRx+OBYXjw4MFnz54NDw9XqVSdnZ1Op/O///579+6dQCAgCEIikTAYDK/XO3HixMmTJ8+ePXvnzp0AAKhUqt7eXolEYrPZ1q1bV1BQgGEYDMMymWzEiBHHjh3zer16vX758uX37t3Lzc0tLCwUCoWZmZlHjx7t6elRqVQZGRkPHz4kCKK6ulqtVotEIhzHYRhevHjxTz/9hKKoTCaTSqUoimq12s2bN3d3d9+8eXPOnDlXrlx59epVUlKSzWaDIEgikezatUsoFLpcrkAgIBKJ0tPTaZq22+3l5eUYhqEoGggEgsHgq1ev7ty5EwwGDQYDj8fDcZzBYBAEQdM0RVEcDsfhcEAQRBAEg8FQqVSRkZFGo5HFYgFms3nLli19+/YNDw9nMBh+v7+9vV0qlWZnZ7PZ7OPHj2s0mufPn3d1db1+/RoAgJaWlmAwmJqaevfu3SNHjmAYptPpNBqNXq/HMIzNZoeEhLhcLpFI9ObNm7lz58bExFRXV+/Zs6ekpCQ+Pl4mk1k/cbvd2dnZM2fO7O3tHTduXFVVlcFgiIyMdDgcbrdbJBJZrdZly5Zdu3bN4/G43e5p06YdO3bM6XTyeDy5XC4QCAAACAsLa2hoWLFixcWLF41Go0Qi4fP5TqfT5/N5vd6tW7cePXoUBEEYhl+9ehUMBmEYJkkyPDxcLBYTBMHn8ydPnnz16lUGgwEAwNSpU2/evOl2uyMiIu7du3f8+HGxWCyTyWw2G4ZhZrP5hx9+cDqd586dQxCEzWb7oQVhwwAADiBJREFU/f5nz54tXrw4IyOjX79+XV1daWlpR44cQRBELpeDINjb2yuXywmCmDp16q1bt3g8Hk3TOI7LZDLAZDJNmjRpw4YNra2tQ4cOlUqlBw4cGDdunNfrpSjqs88+a2tr0+l0Pp9v2bJlSUlJCQkJdrs9KSkJx/GKiopXr15NmDDhwIEDcrk8GAy6XK4ZM2a8e/fO4/G0tLRoNBocx0NCQsrKyrq7u2traxEEwXGczWbL5fLMzMzIyMg5c+awWKxff/3V6XSCIDho0KD379+rVKrJkycXFxe7XK64uDgcx81mc2Zm5rFjx8RisUKhoGna7XZDEISiaG9vL5PJlEql06ZNKygo+PHHH/fv3x8eHt7V1SUQCGAYdjqd7e3tTqezsbHx2rVrv/76a0xMTG9v79ChQ0eMGPHnn3/SNK1Wq5uammiaxjDMYrEolcri4uKamppAICAWizEMe/fu3YYNGxITE2/duvXkyROHw6FSqVAUJQhi1apVarUaRVGSJN1ut8VikcvlBEEgCILjOEVRCoVi8ODB7969EwgEbW1tbDYbSE5O9vl8ixYt4nzi9Xrfvn07c+ZMmqZNJpPP5+vu7j569GhHR0daWppOp5NIJB8+fMjNzVWr1b/99ltRUZHVagVBEEEQj8fD4/EwDENR1GQyCQQCs9nMZrM5HA6XyzUYDEeOHOnu7mYymTweb9q0aUOHDrXZbHPmzKmqqmIwGB0dHWw2G0VRBoNBEERMTExzc/OGDRu2b99ut9sRBImOjuZwOD09PRqNZvjw4Tdv3hQIBJMmTbp3715ra+uqVasKCws5HM6iRYvOnDkTDAZZLJbb7Q4LC7Pb7Xw+v6GhweVydXR0XLp06ffff4cgSK1WGwwGiUTi9XoZDEYwGHz79u3Zs2d/+eUXoVCo0+muXbtmt9sxDHv06JHL5crLy0tISJBKpSdPnqysrBw5cmRzc3N4eHhCQkJubq7ZbBaJRDweb+jQoS0tLXq93uv1Go3G77///sKFC+3t7aGhoVqt9pdffjl58iQQHx9PEMRXX32lUCj4fP7KlSsrKioWLFhw+PDhrq4uFou1c+fOnJwcp9MZCAQePnyo0Wiio6MLCws3btzIYrHi4+P5fD6Tyfzw4YPX6923b9/p06clEolWq42MjDSZTAiCwDA8ceLEy5cv4zje3t5eUVFhs9lmz549YcIECIJmz5599uzZ9PT0S5cuCQSC9PT0EydOREdHZ2Rk/PDDD16v12azwTA8YMAAHo9HUZTdbtdoNL29vSiKslis7u7u2NhYnU4HAAAEQX6/H8Mwp9PJ5/NXr1597NgxkiR9Ph+LxWIwGBaLxePx+P1+HMf5fL5AIAgPDzeZTDweD8MwCIIeP37ct29fi8XidrvDwsIeP378zz//oCjK4XDYbDZBEI8fPy4uLmYwGCdPniRJEkEQp9Pp9/szMjLi4+O5XK7FYkFRlMPh2O12lUpls9lomoYgSCaTTZky5dKlSywWC0VRICEhwW63Z2VlJScnu1yu3NzcwsLCsrKyL7/8EgRBp9PpcrkIgmhpaVGpVEePHk1LS4uMjKyurrZarRwOZ+TIkSkpKVarlcfjCQSC7u7uWbNmVVZWisXihQsXtrW1MZnM69evs9lsq9Uql8tramrKyso0Gk1WVpZKpTIajampqRUVFbNmzfr9999FIpFUKvV4PDweb/bs2fv27TMajU6nUyqVzpo16/nz5y6XSygUQhAkEAgsFotcLk9PTy8qKmKxWCAIqlSq0aNHK5XKs2fP0jRtNBolEkkwGOzt7e3bty9N036/v7W1tbGxkSCIEydOGI3GBw8eyOXytrY2EAR9Ph9N01wud8aMGY8fPyYIwmazLVu2bOTIkVVVVRMnTmxpaVm9enVkZKRUKkUQpLm5+ciRI52dnf369cMwbP369cnJye/fvzcajWw2G0VRp9NpMBj4fL5AIPB6vXPmzLl//35XVxebzQYSExNxHP/6668ZDMauXbvOnz8/ffr0Pn36bN++PTQ01OVysVisrq6ujx8/IghSUFAgFouFQiGHwyEIgqbpmJiYt2/frl+/XqPRTJs2rbCwkMfjrVixwmQyVVZWKhSKsWPH3r17t6mpicViRUREWCyWHTt2mEym/v37Dx48eMaMGSwWS6fTtbS0KJXKQCAgEokQBHG5XBaLpaWlBQRBGIbFYjGTyUQQBMMwAACWL1/udDrPnTsXDAZXrFhRUVGh1WoFAgGO49u2bTt16lRnZ6dUKp0yZYpIJCorK+vo6BAKhQ6HQ6PRsFisuro6vV4PgmBkZCQIgk6ns3///sOGDSMI4smTJzabbdKkSf/88w9N0wKBYNKkSZmZmXq9HoZhkiTDw8MXLVpkMBhkMplWq928eXNiYqJCoaiurm5oaLh+/bpEIvF6vQKBwGw2K5XK+fPnHzhwQCAQSCQSJpNpsVisVuv8+fOBoUOHms3mOXPmxMbGyuXy8PDwQ4cOXb9+vaenRyKRHDhwQCgU2my2QCDw999/19XVCYVCj8fDZrP9fj8IggqFIjk5efDgwdOmTSsoKAgLCwNB0O/3WyyW9evXFxQUhIaGBoPBCRMm3Lt3z+FwyOXykSNHhoWFZWZmejye1NRUsVhMEITJZLJYLBs2bCgvL//666/Pnj07f/7833//fcuWLT/99JNMJiNJEsMwDofjcDjmzZt35coVoVDo9/vB/6fT6VasWFFRUeH1ekmSRBDE7XbjOM7hcAiCYDAYOTk5L168oGnaYDCw2ezu7m673b53794jR47QNC0Wi3k83pIlS9asWSOTyeLi4rRardFoFIvFN2/erK6uhmEYRVEIgtLT07lc7vDhw9++ffvw4cPy8vLx48ffvn174MCBubm5Y8aM6erqAkHQbrdzOByz2axSqSiKmjx5cnFxsVAo/PLLLy9evAjExcUhCFJdXV1SUoIgyIwZM7Zt23bx4kWdTldeXt7Z2SkSiWbNmsXlcn0+H5vNjouLYzKZQqHQZDK9e/cuKysLBMHQ0NDY2FiNRuN0Or1er0ajqa+vnzhxYldXl9FopChq3bp1Bw8ejI6O7unpUSqVNpuNJMns7Oz8/HyZTDZx4sTCwkIul+t0OlUqFQiCwWCQIIi5c+fu378/KSnJ6/VqtdqIiAi/389isT7//POqqiqZTOb3+00mE4qiJEnK5fLMzMxLly75fL4vvvji4cOH3d3dNE0HAoEvvvjixo0bNE1zuVwmk0nTNEVRL1++3LNnT2lpKZPJ9Hq98+bNKy4uJggCAIDu7u7hw4dbrVaj0UhRlNFovHz5slKpNBgMY8eOnTBhgtPpZLPZNE2/ePHC7/dbLBa1Wu1yuW7evFlYWNjZ2anRaFpaWhQKhdvtFolEBEEsX778xIkTwWCQxWJxuVwgNjYWgqBNmzYFAgGj0ZiWllZdXb1gwYLFixevWLHCZrN5vV6Xy8VisZ49e9bc3OzxeAKBAEVRgUDA5XLFxMT079+fz+f3799fKBTW1tayWKwBAwbo9XoYhsePH3/79u1p06bdu3fP7XaLRCK/30+SpNvtxnEcBEE+n89msxkMRmpqaklJiVAo/OKLL/7++28cxxEEoSiqtrY2LS2tb9++oaGh165da2tri4uL6+rq8vv9PB7P7/dTFAWCIEmSKIpin9hsNqFQaLfbGQyG3W7n8/kMBiMiIqKjo8NqtYaEhNhsNj6fX1NTk5CQsGnTpq1btyoUCpfLBQDADz/8sG7dOqFQyOFwIAhqbm5WKBQ0TV+9etVsNj979iw5OTk9PZ3H43G53MTExOTk5MmTJ4eGhiqVypSUlKlTpz579kyv16vV6sbGxpBPGhoaOBzOuHHjWltbGxoapFKp3W4HRo8e3dPTs3r1agRBSJJUqVSzZs2Kj4/X6XSVlZUGgyEvL2/Pnj0sFouiqP/+++/58+cymYymaRzHExISgsFgeXn5mjVrxo0bJxAIhg8ffurUqcOHD+fn53d1dTEYjOzs7Bs3bpAkKZfLe3t7IyMjuVxuVVVVSEiITCYbMmTIu3fvzGZzfX19VFSU2+1eu3bttWvX7HZ7d3e32WwWiUQJCQkEQXg8ngULFpw+fVoikTgcDpPJFB4e7nA4Nm7cePjwYRAEIQjKy8vbvn27SCRCUbS5uRlBEIVC4XQ6w8LC9Hr9hAkT3rx5YzAYYBhmMpkfPnygKComJiYuLq6zszMzM/PgwYNjxoy5f/8+iqJms7m+vj49PZ3NZjscDrvdvnPnzpSUFJ/P53a7d+zYcfjw4fb29iOfREVFxcbGHj9+vLOz8/z583369Ono6IAgiCRJtVptMplqa2vXrFnz9u1bo9HI5/MzMjKAhISEQYMGDRkyhMPh7Ny58+TJk21tbRiGRUVFjR49+tq1awiCzJ49u6SkJBAIPHny5P79+06nc/DgwTKZzOPx8Pl8k8k0depUAADEYnFnZ6dUKu3q6lKr1WKxWK/XO51OHo/ncDhkMhlJkh6PJxgMstlskUhkt9s9Ho9ardbpdBaLhcvlLliw4Ny5c0KhEIbhly9fOhwOqVQaExPj9/uVSqVWq+VyuSRJcrlcNpvNYDAwDDMajQiCoChqNpvXrl3r9XofPHhQW1urUCj8fr/dbufz+QaDgcvlLl++vKCgQCgUjhs37vHjxy0tLR8/foyLi0MQJDo62mg0MplMgiBYLBaCII2NjS8/2bFjh0gkEgqFv//+e2dnJ4Zhbrf748ePZ86cAUFQpVJ1dna63e6QkJCenh65XG40Gjds2HDkyJHW1tb09HSSJLds2TJ06NCoqKhBgwZ5vV4ej0cQxP8BBKVF6gXqTcQAAAAASUVORK5CYII=;" vertex="1" parent="1">
          <mxGeometry x="120" y="40" width="160" height="160" as="geometry" />
        </mxCell>
      </root>
    </mxGraphModel>
  </diagram>
</mxfile>
